<svg width="90" height="87" viewBox="0 0 90 87" fill="none" xmlns="http://www.w3.org/2000/svg">
    <path d="M24.8937 41.4289C26.2523 39.4752 25.7606 36.7969 23.8199 35.4384C23.0824 34.9338 22.2543 34.675 21.4262 34.675C20.0418 34.6621 18.6833 35.309 17.8293 36.5252C16.4708 38.4789 16.9625 41.1572 18.9032 42.5157C19.6407 43.0203 20.4688 43.2791 21.2969 43.2791C22.6813 43.292 24.0398 42.6451 24.8937 41.4289Z" fill="url(#paint0_linear_613_5436)" />
    <path d="M57.5248 54.4448C57.5119 54.4448 57.5119 54.4448 57.5248 54.4448C57.4989 54.5354 58.8834 55.7257 60.1513 56.8255C65.6243 61.561 69.7517 66.0247 69.0012 67.0986C68.833 67.3444 68.4837 67.448 67.992 67.435C64.4598 67.3315 53.1128 61.2375 40.4978 52.4781C34.7402 48.4802 29.6036 44.5469 25.5797 41.1182C25.4762 41.3122 25.3727 41.4934 25.2433 41.6745C24.9587 42.0756 24.6223 42.4379 24.2471 42.7225C28.5944 46.4359 34.2485 50.7185 40.2908 54.9106C54.4843 64.7697 67.3581 71.4848 71.4725 71.3942C72.0677 71.3812 72.4688 71.226 72.6887 70.9284C73.9826 69.0782 68.1861 62.7772 57.5248 54.4448Z" fill="url(#paint1_linear_613_5436)" />
    <path d="M17.4542 36.2793C17.4672 36.2793 17.4672 36.2793 17.4542 36.2793C17.8683 35.6841 18.3987 35.2183 18.9939 34.869C18.8128 34.662 18.6575 34.4808 18.6058 34.4161C17.2213 32.76 16.458 31.4144 16.8332 30.871C17.0014 30.6381 17.3249 30.5346 17.8165 30.5346C18.5281 30.5475 19.5632 30.8063 20.87 31.298C20.8571 31.298 20.8441 31.285 20.8441 31.285C20.8571 31.285 20.87 31.298 20.8829 31.298C18.4117 30.2629 16.4839 29.7065 15.2676 29.7065C14.6337 29.7065 14.1937 29.8618 13.9738 30.1723C13.4045 30.9875 14.4913 32.9282 16.8849 35.6194C16.9496 35.71 17.1955 35.9817 17.4542 36.2793Z" fill="url(#paint2_linear_613_5436)" />
    <path d="M34.0799 33.9115L35.1538 33.5622L34.0799 33.2129L34.895 32.1131L33.8988 32.8506L33.4589 29.7065L32.9931 32.8506L32.0097 32.1131L32.8249 33.2129L31.751 33.5622L32.8249 33.9115L31.9968 35.0113L32.9931 34.2609L33.4459 37.4179L33.8988 34.2609L34.895 35.0113L34.0799 33.9115Z" fill="url(#paint3_linear_613_5436)" />
    <path d="M52.6466 68.8973L53.617 68.7162L52.6595 68.5221L53.41 67.6423L52.4008 68.3021L52.1937 66.9824L51.9738 68.3021L50.9646 67.6423L51.715 68.5221L50.7446 68.7032L51.715 68.8973L50.9646 69.7771L51.9608 69.1173L52.1808 70.437L52.4008 69.1173L53.397 69.7771L52.6466 68.8973Z" fill="url(#paint4_linear_613_5436)" />
    <path d="M43.344 63.9286C50.7255 63.9286 56.7094 57.9447 56.7094 50.5632C56.7094 43.1817 50.7255 37.1978 43.344 37.1978C35.9624 37.1978 29.9785 43.1817 29.9785 50.5632C29.9785 57.9447 35.9624 63.9286 43.344 63.9286Z" fill="url(#paint5_linear_613_5436)" />
    <path d="M24.8937 41.4284C26.2523 39.4747 25.7606 36.7964 23.8199 35.4379C23.0824 34.9333 22.2543 34.6745 21.4262 34.6745C20.0418 34.6616 18.6833 35.3085 17.8293 36.5247C16.4708 38.4784 16.9625 41.1567 18.9032 42.5152C19.6407 43.0198 20.4688 43.2786 21.2969 43.2786C22.6813 43.2915 24.0398 42.6446 24.8937 41.4284Z" fill="url(#paint6_linear_613_5436)" />
    <path d="M57.5248 54.4443C57.5119 54.4443 57.5119 54.4443 57.5248 54.4443C57.4989 54.5349 58.8834 55.7252 60.1513 56.825C65.6243 61.5605 69.7517 66.0242 69.0012 67.0981C68.833 67.344 68.4837 67.4475 67.992 67.4345C64.4598 67.331 53.1128 61.237 40.4978 52.4777C34.7402 48.4797 29.6036 44.5464 25.5797 41.1177C25.4762 41.3118 25.3727 41.4929 25.2433 41.674C24.9587 42.0751 24.6223 42.4374 24.2471 42.722C28.5944 46.4354 34.2485 50.718 40.2908 54.9101C54.4843 64.7692 67.3581 71.4843 71.4725 71.3937C72.0677 71.3808 72.4688 71.2255 72.6887 70.9279C73.9826 69.0777 68.1861 62.7767 57.5248 54.4443Z" fill="url(#paint7_linear_613_5436)" />
    <path d="M17.4542 36.2788C17.4672 36.2788 17.4672 36.2788 17.4542 36.2788C17.8683 35.6836 18.3987 35.2178 18.9939 34.8685C18.8128 34.6615 18.6575 34.4803 18.6058 34.4157C17.2213 32.7595 16.458 31.4139 16.8332 30.8705C17.0014 30.6376 17.3249 30.5341 17.8165 30.5341C18.5281 30.5471 19.5632 30.8058 20.87 31.2975C20.8571 31.2975 20.8441 31.2845 20.8441 31.2845C20.8571 31.2845 20.87 31.2975 20.8829 31.2975C18.4117 30.2624 16.4839 29.7061 15.2676 29.7061C14.6337 29.7061 14.1937 29.8613 13.9738 30.1718C13.4045 30.987 14.4913 32.9277 16.8849 35.6189C16.9496 35.7095 17.1955 35.9812 17.4542 36.2788Z" fill="url(#paint8_linear_613_5436)" />
    <path d="M61.7942 41.4284C60.4356 39.4747 60.9273 36.7964 62.8681 35.4379C63.6056 34.9333 64.4336 34.6745 65.2617 34.6745C66.6461 34.6616 68.0047 35.3085 68.8586 36.5247C70.2171 38.4784 69.7255 41.1567 67.7847 42.5152C67.0472 43.0198 66.2191 43.2786 65.3911 43.2786C64.0067 43.2915 62.6481 42.6446 61.7942 41.4284Z" fill="url(#paint9_linear_613_5436)" />
    <path d="M29.1635 54.4443C29.1635 54.4443 29.1765 54.4443 29.1635 54.4443C29.1894 54.5349 27.805 55.7252 26.537 56.825C21.0641 61.5605 16.9367 66.0242 17.6871 67.0981C17.8553 67.344 18.2046 67.4475 18.6963 67.4345C22.2285 67.331 33.5756 61.237 46.1906 52.4777C51.9482 48.4797 57.0848 44.5464 61.1086 41.1177C61.2121 41.3118 61.3156 41.4929 61.445 41.674C61.7297 42.0751 62.0661 42.4374 62.4413 42.722C58.094 46.4354 52.4398 50.718 46.3976 54.9101C32.2041 64.7692 19.3303 71.4843 15.2159 71.3937C14.6207 71.3808 14.2196 71.2255 13.9996 70.9279C12.6929 69.0777 18.5022 62.7767 29.1635 54.4443Z" fill="url(#paint10_linear_613_5436)" />
    <path d="M69.2339 36.2788C69.2209 36.2788 69.2209 36.2788 69.2339 36.2788C68.8198 35.6836 68.2894 35.2178 67.6942 34.8685C67.8753 34.6615 68.0306 34.4803 68.0823 34.4157C69.4668 32.7595 70.2301 31.4139 69.8549 30.8705C69.6867 30.6376 69.3633 30.5341 68.8716 30.5341C68.16 30.5471 67.1249 30.8058 65.8181 31.2975C65.8311 31.2975 65.844 31.2845 65.844 31.2845C65.8311 31.2845 65.8181 31.2975 65.8052 31.2975C68.2764 30.2624 70.2043 29.7061 71.4205 29.7061C72.0545 29.7061 72.4944 29.8613 72.7143 30.1718C73.2836 30.987 72.1968 32.9277 69.8032 35.6189C69.7385 35.7095 69.4926 35.9812 69.2339 36.2788Z" fill="url(#paint11_linear_613_5436)" />
    <path d="M47.8464 77.6958C48.3122 77.01 48.5839 76.182 48.5968 75.2892C48.6098 72.9085 46.6949 70.9807 44.3142 70.9678C42.8263 70.9678 41.5195 71.7053 40.7432 72.8439C40.2774 73.5296 40.0057 74.3576 39.9927 75.2504C39.9798 77.6311 41.8947 79.5589 44.2754 79.5719C45.7633 79.5848 47.0701 78.8344 47.8464 77.6958Z" fill="url(#paint12_linear_613_5436)" />
    <path d="M52.375 36.7713C51.6763 23.2506 49.8391 14.8923 47.5748 14.8794C47.2126 14.8794 46.8503 15.1252 46.5009 15.6039C44.0685 18.9291 42.1795 33.3297 42.1019 50.6025C42.076 57.9645 42.3348 65.0548 42.8782 70.7477C43.331 70.6054 43.8227 70.5277 44.3143 70.5277C44.5343 70.5277 44.7542 70.5407 44.9613 70.5795C44.4696 65.3265 44.185 58.8573 44.2238 51.8446C44.2885 36.4996 45.8023 23.7034 47.756 20.7535C48.0277 20.3394 48.3253 20.1195 48.6099 20.1195C49.9167 20.1195 51.1976 26.0582 51.9351 33.265C52.1033 34.934 52.2974 36.7454 52.375 36.7713Z" fill="url(#paint13_linear_613_5436)" />
    <path d="M50.3047 80.0766C49.9554 81.4222 49.5672 82.4185 49.1791 83.0136C48.9074 83.4147 48.6227 83.6218 48.3381 83.6218C47.6782 83.6218 47.0054 82.2115 46.4491 80.1413C46.4232 80.0637 46.3714 79.8308 46.3067 79.5591C45.6857 79.8567 44.987 80.0119 44.2754 80.0119C44.366 80.4001 44.4565 80.7494 44.4824 80.8788C45.3234 84.3722 46.2809 86.3776 47.2771 86.3776C47.6653 86.3776 48.0405 86.1059 48.4028 85.5755C49.0885 84.5792 49.7354 82.6773 50.3047 80.0766C50.3047 80.0896 50.3047 80.1025 50.2918 80.1154C50.3047 80.0896 50.3047 80.0896 50.3047 80.0766Z" fill="url(#paint14_linear_613_5436)" />
    <path d="M5.20127 24.6993C5.30477 24.9451 5.31771 25.2298 5.25302 25.5662C5.18833 25.9026 5.046 26.239 4.83899 26.5754C4.63197 26.9118 4.36026 27.1706 4.02386 27.3388C3.7004 27.507 3.33813 27.5587 2.94997 27.5199C2.56182 27.4811 2.17366 27.3388 1.78551 27.1059L1.22915 26.7695C0.621047 26.3943 0.245831 25.9414 0.0776308 25.4239C-0.0776308 24.9063 0 24.3888 0.310523 23.8713C0.59517 23.4184 0.93157 23.1338 1.31972 23.0044C1.72082 22.875 2.13485 22.9009 2.56182 23.1079L2.32892 23.4702C1.97959 23.3278 1.65612 23.302 1.35854 23.4055C1.06095 23.509 0.815124 23.7289 0.608108 24.0653C0.349339 24.4664 0.297585 24.8805 0.439908 25.3074C0.582231 25.7215 0.918631 26.0967 1.44911 26.4201L1.96665 26.7436C2.30305 26.9506 2.62651 27.08 2.94997 27.1188C3.27343 27.1706 3.57102 27.1188 3.84273 27.0024C4.11443 26.873 4.33439 26.6789 4.50259 26.4072C4.69666 26.0837 4.81311 25.7861 4.86486 25.5015C4.89074 25.3074 4.8778 25.1522 4.83899 25.0228L3.71334 24.3241L2.98879 25.4886L2.67826 25.2945L3.63571 23.7548L5.20127 24.6993Z" fill="#CD7AEE" />
    <path d="M9.7944 17.8033L8.20297 19.5112L8.90165 20.8827L8.59112 21.2191L6.15869 16.3025L6.44334 16.0049L11.5282 18.075L11.2176 18.4114L9.7944 17.8033ZM8.03477 19.1619L9.43213 17.661L6.68917 16.5095L8.03477 19.1619Z" fill="#CD7AEE" />
    <path d="M15.3193 14.3227L17.3507 12.8089L17.5706 13.1065L15.19 14.8791L12.1235 10.7646L12.4729 10.5059L15.3193 14.3227Z" fill="#CD7AEE" />
    <path d="M23.6905 7.97L21.6074 9.00507L21.7756 10.5318L21.3615 10.7388L20.8311 5.27879L21.2063 5.09766L25.2172 8.83687L24.8161 9.03095L23.6905 7.97ZM21.5556 8.61692L23.4058 7.71123L21.2451 5.65401L21.5556 8.61692Z" fill="#CD7AEE" />
    <path d="M32.8121 4.67117C32.9027 5.20165 32.825 5.65449 32.5792 6.01677C32.3334 6.37905 31.9582 6.63782 31.4277 6.78014C31.0654 6.88365 30.7161 6.87071 30.3797 6.7672C30.0433 6.66369 29.7586 6.45668 29.5128 6.17203C29.267 5.87445 29.0858 5.51217 28.9694 5.0852L28.7882 4.43828C28.6718 3.99837 28.633 3.58434 28.6977 3.20912C28.7624 2.82097 28.9047 2.51044 29.1505 2.23874C29.3834 1.97997 29.6939 1.78589 30.0691 1.69532C30.5996 1.553 31.0525 1.57887 31.4406 1.78589C31.8288 1.99291 32.1134 2.32931 32.2946 2.82097L31.8676 2.93741C31.5312 2.12229 30.9619 1.82471 30.1597 2.04466C29.7069 2.16111 29.3963 2.43281 29.2281 2.84684C29.047 3.26088 29.047 3.75254 29.2023 4.34771L29.3705 4.95582C29.5257 5.52511 29.7845 5.95208 30.1338 6.21085C30.4832 6.48256 30.8843 6.56019 31.3242 6.4308C31.7641 6.31436 32.0617 6.12028 32.2299 5.84857C32.3981 5.57686 32.4498 5.22752 32.3851 4.78762L32.8121 4.67117Z" fill="#CD7AEE" />
    <path d="M41.2997 0.362277L39.5531 0.5046L39.9283 5.25302L39.5013 5.29183L39.1261 0.543416L37.3794 0.685739L37.3535 0.323462L41.2739 0L41.2997 0.362277Z" fill="#CD7AEE" />
    <path d="M47.1609 5.27891L46.7339 5.24009L47.135 0.129395L47.5619 0.16821L47.1609 5.27891Z" fill="#CD7AEE" />
    <path d="M54.9109 3.55791L56.8258 1.79828L57.3304 1.92766L55.0791 3.98488L56.166 6.92191L55.6614 6.79253L54.7427 4.25659L52.7502 6.08091L52.2456 5.96447L54.5745 3.8555L53.5265 0.996094L54.0311 1.12548L54.9109 3.55791Z" fill="#CD7AEE" />
    <path d="M66.4777 10.9975L69.1689 12.6795L68.9749 12.99L65.8438 11.0363L66.012 10.7646L70.9415 8.6168L68.4444 7.05125L68.6385 6.74072L71.6014 8.59092L71.4332 8.84969L66.4777 10.9975Z" fill="#CD7AEE" />
    <path d="M77.2298 16.9105C76.9063 17.2598 76.5699 17.5057 76.2076 17.6609C75.8454 17.8162 75.4831 17.855 75.1338 17.7903C74.7844 17.7256 74.461 17.5574 74.1634 17.2857C73.7235 16.8846 73.5164 16.393 73.5294 15.8237C73.5553 15.2544 73.814 14.711 74.3057 14.1805L74.668 13.7923C74.9914 13.4559 75.3278 13.1972 75.6901 13.0548C76.0524 12.8996 76.4147 12.8608 76.7769 12.9254C77.1263 12.9901 77.4497 13.1583 77.7473 13.4171C78.032 13.6888 78.226 13.9864 78.3166 14.3357C78.4072 14.6851 78.3942 15.0344 78.2778 15.3967C78.1614 15.759 77.9543 16.1213 77.6438 16.4577L77.2298 16.9105ZM77.2945 16.1989C77.7085 15.746 77.9414 15.2932 77.9673 14.8533C78.0061 14.4004 77.8379 14.0123 77.4756 13.6888C77.1263 13.3654 76.7252 13.236 76.2853 13.3007C75.8454 13.3654 75.4055 13.6241 74.9785 14.0899L74.6162 14.4781C74.2022 14.918 73.9822 15.3708 73.9434 15.8237C73.9046 16.2765 74.0728 16.6647 74.4221 17.0011C74.7844 17.3375 75.1855 17.4669 75.6254 17.3892C76.0653 17.3245 76.5052 17.0528 76.9193 16.587L77.2945 16.1989Z" fill="#CD7AEE" />
    <path d="M81.3311 25.5667L81.0724 25.2173L82.9096 20.2619L79.3515 22.8237L79.0928 22.4744L83.259 19.4727L83.5177 19.822L81.6805 24.7904L85.2385 22.2156L85.4844 22.5649L81.3311 25.5667Z" fill="#CD7AEE" />
    <path d="M87.438 31.7898L86.4288 29.6161L84.5268 30.4959L85.6783 33.006L85.3419 33.1612L84.0093 30.263L88.6671 28.1152L89.9998 31.0005L89.6634 31.1558L88.5119 28.6716L86.7522 29.4867L87.7614 31.6604L87.438 31.7898Z" fill="#CD7AEE" />
    <defs>
        <linearGradient id="paint0_linear_613_5436" x1="17.049" y1="38.977" x2="25.657" y2="38.977" gradientUnits="userSpaceOnUse">
            <stop stop-color="#31C3FF" />
            <stop offset="1" stop-color="#BC35FE" />
        </linearGradient>
        <linearGradient id="paint1_linear_613_5436" x1="24.2437" y1="56.2649" x2="72.8706" y2="56.2649" gradientUnits="userSpaceOnUse">
            <stop stop-color="#31C3FF" />
            <stop offset="1" stop-color="#BC35FE" />
        </linearGradient>
        <linearGradient id="paint2_linear_613_5436" x1="13.8166" y1="32.991" x2="20.8754" y2="32.991" gradientUnits="userSpaceOnUse">
            <stop stop-color="#31C3FF" />
            <stop offset="1" stop-color="#BC35FE" />
        </linearGradient>
        <linearGradient id="paint3_linear_613_5436" x1="22.0728" y1="38.9764" x2="52.7777" y2="24.355" gradientUnits="userSpaceOnUse">
            <stop stop-color="#B20461" />
            <stop offset="1" stop-color="#F38F02" />
        </linearGradient>
        <linearGradient id="paint4_linear_613_5436" x1="37.2385" y1="75.826" x2="67.9436" y2="61.2046" gradientUnits="userSpaceOnUse">
            <stop stop-color="#B20461" />
            <stop offset="1" stop-color="#F38F02" />
        </linearGradient>
        <linearGradient id="paint5_linear_613_5436" x1="29.9339" y1="56.9911" x2="54.9167" y2="45.0044" gradientUnits="userSpaceOnUse">
            <stop stop-color="#B20461" />
            <stop offset="1" stop-color="#F38F02" />
        </linearGradient>
        <linearGradient id="paint6_linear_613_5436" x1="21.353" y1="14.8916" x2="21.353" y2="84.3327" gradientUnits="userSpaceOnUse">
            <stop offset="1.1e-07" stop-color="#D576ED" />
            <stop offset="1" stop-color="#34C2FF" />
        </linearGradient>
        <linearGradient id="paint7_linear_613_5436" x1="48.5572" y1="14.8914" x2="48.5572" y2="84.3327" gradientUnits="userSpaceOnUse">
            <stop offset="1.1e-07" stop-color="#D576ED" />
            <stop offset="1" stop-color="#34C2FF" />
        </linearGradient>
        <linearGradient id="paint8_linear_613_5436" x1="17.346" y1="14.8915" x2="17.346" y2="84.3328" gradientUnits="userSpaceOnUse">
            <stop offset="1.1e-07" stop-color="#D576ED" />
            <stop offset="1" stop-color="#34C2FF" />
        </linearGradient>
        <linearGradient id="paint9_linear_613_5436" x1="65.3338" y1="14.8916" x2="65.3338" y2="84.3327" gradientUnits="userSpaceOnUse">
            <stop offset="1.1e-07" stop-color="#D576ED" />
            <stop offset="1" stop-color="#34C2FF" />
        </linearGradient>
        <linearGradient id="paint10_linear_613_5436" x1="38.1301" y1="14.8914" x2="38.1301" y2="84.3327" gradientUnits="userSpaceOnUse">
            <stop offset="1.1e-07" stop-color="#D576ED" />
            <stop offset="1" stop-color="#34C2FF" />
        </linearGradient>
        <linearGradient id="paint11_linear_613_5436" x1="69.341" y1="14.8915" x2="69.341" y2="84.3328" gradientUnits="userSpaceOnUse">
            <stop offset="1.1e-07" stop-color="#D576ED" />
            <stop offset="1" stop-color="#34C2FF" />
        </linearGradient>
        <linearGradient id="paint12_linear_613_5436" x1="44.2933" y1="14.8924" x2="44.2933" y2="84.3336" gradientUnits="userSpaceOnUse">
            <stop offset="1.1e-07" stop-color="#D576ED" />
            <stop offset="1" stop-color="#34C2FF" />
        </linearGradient>
        <linearGradient id="paint13_linear_613_5436" x1="47.24" y1="14.882" x2="47.24" y2="84.3233" gradientUnits="userSpaceOnUse">
            <stop offset="1.1e-07" stop-color="#D576ED" />
            <stop offset="1" stop-color="#34C2FF" />
        </linearGradient>
        <linearGradient id="paint14_linear_613_5436" x1="47.2889" y1="14.8927" x2="47.2889" y2="84.334" gradientUnits="userSpaceOnUse">
            <stop offset="1.1e-07" stop-color="#D576ED" />
            <stop offset="1" stop-color="#34C2FF" />
        </linearGradient>
    </defs>
</svg>