<svg width="345" height="410" viewBox="0 0 345 410" fill="none" xmlns="http://www.w3.org/2000/svg">
    <rect width="345" height="410" rx="10" fill="#2C2E32" />
    <g style="mix-blend-mode:luminosity" opacity="0.5">
        <path d="M141.305 189.269C143.412 186.238 142.65 182.083 139.639 179.976C138.495 179.193 137.21 178.791 135.926 178.791C133.778 178.771 131.67 179.775 130.346 181.662C128.238 184.692 129.001 188.847 132.012 190.955C133.156 191.738 134.44 192.139 135.725 192.139C137.873 192.159 139.98 191.156 141.305 189.269Z" fill="url(#paint0_linear_1883_7243)" />
        <path d="M191.928 209.461C191.908 209.461 191.908 209.461 191.928 209.461C191.888 209.601 194.036 211.448 196.003 213.154C204.493 220.5 210.896 227.425 209.732 229.091C209.471 229.472 208.929 229.633 208.166 229.613C202.687 229.452 185.084 219.998 165.514 206.41C156.582 200.207 148.613 194.106 142.371 188.787C142.211 189.088 142.05 189.369 141.849 189.65C141.408 190.272 140.886 190.834 140.304 191.276C147.048 197.036 155.819 203.68 165.193 210.183C187.211 225.478 207.183 235.895 213.566 235.754C214.489 235.734 215.111 235.494 215.452 235.032C217.459 232.162 208.467 222.387 191.928 209.461Z" fill="url(#paint1_linear_1883_7243)" />
        <path d="M129.765 181.28C129.785 181.28 129.785 181.28 129.765 181.28C130.407 180.357 131.23 179.634 132.153 179.092C131.872 178.771 131.631 178.49 131.551 178.39C129.403 175.82 128.219 173.733 128.801 172.89C129.062 172.529 129.564 172.368 130.327 172.368C131.431 172.388 133.036 172.79 135.064 173.552C135.043 173.552 135.023 173.532 135.023 173.532C135.043 173.532 135.064 173.552 135.084 173.552C131.25 171.947 128.259 171.083 126.372 171.083C125.389 171.083 124.707 171.324 124.365 171.806C123.482 173.071 125.168 176.081 128.881 180.256C128.982 180.397 129.363 180.818 129.765 181.28Z" fill="url(#paint2_linear_1883_7243)" />
        <path d="M155.561 177.608L157.227 177.066L155.561 176.524L156.826 174.818L155.28 175.962L154.598 171.084L153.875 175.962L152.35 174.818L153.614 176.524L151.948 177.066L153.614 177.608L152.33 179.314L153.875 178.15L154.578 183.047L155.28 178.15L156.826 179.314L155.561 177.608Z" fill="url(#paint3_linear_1883_7243)" />
        <path d="M184.363 231.882L185.868 231.601L184.383 231.3L185.547 229.935L183.981 230.958L183.66 228.911L183.319 230.958L181.753 229.935L182.917 231.3L181.412 231.581L182.917 231.882L181.753 233.247L183.299 232.223L183.64 234.27L183.981 232.223L185.527 233.247L184.363 231.882Z" fill="url(#paint4_linear_1883_7243)" />
        <path d="M169.928 224.174C181.38 224.174 190.663 214.891 190.663 203.44C190.663 191.989 181.38 182.706 169.928 182.706C158.477 182.706 149.194 191.989 149.194 203.44C149.194 214.891 158.477 224.174 169.928 224.174Z" fill="url(#paint5_linear_1883_7243)" />
        <path d="M141.308 189.27C143.415 186.239 142.653 182.085 139.642 179.977C138.498 179.194 137.213 178.793 135.929 178.793C133.781 178.773 131.673 179.776 130.349 181.663C128.241 184.694 129.004 188.849 132.015 190.956C133.159 191.739 134.443 192.14 135.728 192.14C137.876 192.161 139.983 191.157 141.308 189.27Z" fill="url(#paint6_linear_1883_7243)" />
        <path d="M191.931 209.462C191.911 209.462 191.911 209.462 191.931 209.462C191.891 209.602 194.039 211.449 196.006 213.155C204.496 220.501 210.899 227.426 209.735 229.092C209.474 229.473 208.932 229.634 208.169 229.614C202.69 229.453 185.087 220 165.517 206.411C156.585 200.209 148.616 194.107 142.374 188.788C142.213 189.089 142.053 189.37 141.852 189.651C141.411 190.273 140.889 190.835 140.307 191.277C147.051 197.038 155.822 203.681 165.196 210.185C187.214 225.479 207.186 235.896 213.568 235.756C214.492 235.736 215.114 235.495 215.455 235.033C217.462 232.163 208.47 222.388 191.931 209.462Z" fill="url(#paint7_linear_1883_7243)" />
        <path d="M129.768 181.281C129.788 181.281 129.788 181.281 129.768 181.281C130.41 180.358 131.233 179.636 132.156 179.094C131.875 178.772 131.634 178.491 131.554 178.391C129.406 175.822 128.222 173.734 128.804 172.891C129.065 172.53 129.567 172.37 130.33 172.37C131.433 172.39 133.039 172.791 135.066 173.554C135.046 173.554 135.026 173.534 135.026 173.534C135.046 173.534 135.066 173.554 135.087 173.554C131.253 171.948 128.262 171.085 126.375 171.085C125.392 171.085 124.709 171.326 124.368 171.808C123.485 173.072 125.171 176.083 128.884 180.258C128.985 180.398 129.366 180.82 129.768 181.281Z" fill="url(#paint8_linear_1883_7243)" />
        <path d="M198.557 189.27C196.449 186.239 197.212 182.085 200.223 179.977C201.367 179.194 202.651 178.793 203.936 178.793C206.084 178.773 208.191 179.776 209.516 181.663C211.623 184.694 210.861 188.849 207.85 190.956C206.706 191.739 205.421 192.14 204.137 192.14C201.989 192.161 199.881 191.157 198.557 189.27Z" fill="url(#paint9_linear_1883_7243)" />
        <path d="M147.935 209.462C147.935 209.462 147.955 209.462 147.935 209.462C147.975 209.602 145.827 211.449 143.86 213.155C135.37 220.501 128.967 227.426 130.131 229.092C130.392 229.473 130.934 229.634 131.697 229.614C137.177 229.453 154.779 220 174.349 206.411C183.281 200.209 191.25 194.107 197.492 188.788C197.653 189.089 197.813 189.37 198.014 189.651C198.456 190.273 198.977 190.835 199.559 191.277C192.815 197.038 184.044 203.681 174.671 210.185C152.652 225.479 132.68 235.896 126.298 235.756C125.374 235.736 124.752 235.495 124.411 235.033C122.384 232.163 131.396 222.388 147.935 209.462Z" fill="url(#paint10_linear_1883_7243)" />
        <path d="M210.098 181.281C210.078 181.281 210.078 181.281 210.098 181.281C209.456 180.358 208.633 179.636 207.71 179.094C207.991 178.772 208.232 178.491 208.312 178.391C210.46 175.822 211.644 173.734 211.062 172.891C210.801 172.53 210.299 172.37 209.536 172.37C208.432 172.39 206.827 172.791 204.799 173.554C204.819 173.554 204.84 173.534 204.84 173.534C204.819 173.534 204.799 173.554 204.779 173.554C208.613 171.948 211.604 171.085 213.49 171.085C214.474 171.085 215.156 171.326 215.498 171.808C216.381 173.072 214.695 176.083 210.981 180.258C210.881 180.398 210.5 180.82 210.098 181.281Z" fill="url(#paint11_linear_1883_7243)" />
        <path d="M176.915 245.531C177.638 244.467 178.059 243.183 178.079 241.798C178.099 238.105 175.129 235.114 171.436 235.094C169.127 235.094 167.1 236.238 165.896 238.004C165.173 239.068 164.752 240.353 164.732 241.737C164.711 245.431 167.682 248.421 171.375 248.441C173.684 248.462 175.711 247.297 176.915 245.531Z" fill="url(#paint12_linear_1883_7243)" />
        <path d="M183.939 182.044C182.855 161.069 180.005 148.103 176.492 148.083C175.93 148.083 175.368 148.464 174.826 149.207C171.053 154.365 168.122 176.705 168.002 203.501C167.962 214.921 168.363 225.921 169.206 234.752C169.909 234.531 170.671 234.411 171.434 234.411C171.775 234.411 172.116 234.431 172.438 234.491C171.675 226.342 171.233 216.306 171.294 205.427C171.394 181.622 173.742 161.771 176.773 157.195C177.195 156.553 177.656 156.212 178.098 156.212C180.125 156.212 182.112 165.425 183.256 176.604C183.517 179.194 183.818 182.004 183.939 182.044Z" fill="url(#paint13_linear_1883_7243)" />
        <path d="M180.727 249.225C180.186 251.312 179.583 252.858 178.981 253.781C178.56 254.403 178.118 254.724 177.677 254.724C176.653 254.724 175.609 252.537 174.746 249.325C174.706 249.205 174.626 248.843 174.525 248.422C173.562 248.884 172.478 249.124 171.374 249.124C171.515 249.727 171.655 250.268 171.695 250.469C173 255.889 174.485 259 176.031 259C176.633 259 177.215 258.578 177.777 257.755C178.841 256.21 179.844 253.259 180.727 249.225C180.727 249.245 180.727 249.265 180.707 249.285C180.727 249.245 180.727 249.245 180.727 249.225Z" fill="url(#paint14_linear_1883_7243)" />
        <path d="M110.76 163.317C110.921 163.698 110.941 164.139 110.841 164.661C110.74 165.183 110.519 165.705 110.198 166.227C109.877 166.749 109.456 167.15 108.934 167.411C108.432 167.672 107.87 167.752 107.268 167.692C106.666 167.632 106.063 167.411 105.461 167.05L104.598 166.528C103.655 165.946 103.073 165.243 102.812 164.441C102.571 163.638 102.691 162.835 103.173 162.032C103.615 161.329 104.137 160.888 104.739 160.687C105.361 160.486 106.003 160.527 106.666 160.848L106.304 161.41C105.762 161.189 105.261 161.149 104.799 161.309C104.337 161.47 103.956 161.811 103.635 162.333C103.233 162.955 103.153 163.598 103.374 164.26C103.595 164.902 104.117 165.484 104.939 165.986L105.742 166.488C106.264 166.809 106.766 167.01 107.268 167.07C107.77 167.15 108.231 167.07 108.653 166.889C109.074 166.689 109.415 166.388 109.676 165.966C109.977 165.464 110.158 165.003 110.238 164.561C110.279 164.26 110.258 164.019 110.198 163.818L108.452 162.734L107.328 164.541L106.846 164.24L108.332 161.851L110.76 163.317Z" fill="#CD7AEE" />
        <path d="M117.886 152.619L115.417 155.268L116.501 157.396L116.02 157.918L112.246 150.29L112.688 149.829L120.576 153.04L120.094 153.562L117.886 152.619ZM115.156 154.726L117.324 152.398L113.069 150.611L115.156 154.726Z" fill="#CD7AEE" />
        <path d="M126.456 147.219L129.607 144.87L129.948 145.332L126.255 148.082L121.498 141.699L122.04 141.297L126.456 147.219Z" fill="#CD7AEE" />
        <path d="M139.44 137.364L136.208 138.97L136.469 141.338L135.827 141.659L135.004 133.189L135.586 132.908L141.808 138.709L141.186 139.01L139.44 137.364ZM136.128 138.368L138.998 136.963L135.646 133.771L136.128 138.368Z" fill="#CD7AEE" />
        <path d="M153.592 132.247C153.733 133.07 153.612 133.772 153.231 134.334C152.85 134.896 152.268 135.298 151.445 135.519C150.883 135.679 150.341 135.659 149.819 135.498C149.297 135.338 148.855 135.017 148.474 134.575C148.093 134.114 147.812 133.551 147.631 132.889L147.35 131.886C147.169 131.203 147.109 130.561 147.209 129.979C147.31 129.377 147.531 128.895 147.912 128.473C148.273 128.072 148.755 127.771 149.337 127.63C150.16 127.41 150.863 127.45 151.465 127.771C152.067 128.092 152.508 128.614 152.789 129.377L152.127 129.557C151.605 128.293 150.722 127.831 149.478 128.172C148.775 128.353 148.293 128.774 148.032 129.417C147.751 130.059 147.751 130.822 147.992 131.745L148.253 132.688C148.494 133.572 148.896 134.234 149.437 134.635C149.979 135.057 150.602 135.177 151.284 134.977C151.966 134.796 152.428 134.495 152.689 134.073C152.95 133.652 153.03 133.11 152.93 132.427L153.592 132.247Z" fill="#CD7AEE" />
        <path d="M166.758 125.562L164.048 125.783L164.63 133.149L163.968 133.209L163.386 125.843L160.676 126.064L160.636 125.502L166.717 125L166.758 125.562Z" fill="#CD7AEE" />
        <path d="M175.856 133.19L175.193 133.13L175.816 125.201L176.478 125.261L175.856 133.19Z" fill="#CD7AEE" />
        <path d="M187.877 130.519L190.848 127.789L191.63 127.99L188.138 131.181L189.824 135.738L189.041 135.537L187.616 131.603L184.525 134.433L183.742 134.252L187.355 130.981L185.729 126.545L186.512 126.746L187.877 130.519Z" fill="#CD7AEE" />
        <path d="M205.82 142.061L209.995 144.67L209.694 145.152L204.837 142.121L205.098 141.699L212.745 138.367L208.871 135.939L209.172 135.457L213.769 138.327L213.508 138.729L205.82 142.061Z" fill="#CD7AEE" />
        <path d="M222.503 151.233C222.001 151.775 221.479 152.157 220.917 152.398C220.355 152.638 219.793 152.699 219.252 152.598C218.71 152.498 218.208 152.237 217.746 151.816C217.064 151.193 216.743 150.431 216.763 149.547C216.803 148.664 217.204 147.821 217.967 146.998L218.529 146.396C219.031 145.874 219.553 145.473 220.115 145.252C220.677 145.011 221.239 144.951 221.801 145.051C222.343 145.152 222.844 145.413 223.306 145.814C223.748 146.236 224.049 146.697 224.189 147.239C224.33 147.781 224.31 148.323 224.129 148.885C223.948 149.447 223.627 150.009 223.145 150.531L222.503 151.233ZM222.603 150.129C223.246 149.427 223.607 148.724 223.647 148.042C223.707 147.34 223.446 146.737 222.884 146.236C222.343 145.734 221.72 145.533 221.038 145.633C220.355 145.734 219.673 146.135 219.011 146.858L218.449 147.46C217.806 148.142 217.465 148.845 217.405 149.547C217.345 150.25 217.606 150.852 218.148 151.374C218.71 151.896 219.332 152.097 220.014 151.976C220.697 151.876 221.379 151.454 222.021 150.732L222.603 150.129Z" fill="#CD7AEE" />
        <path d="M228.865 164.662L228.464 164.12L231.314 156.432L225.794 160.407L225.393 159.865L231.856 155.208L232.257 155.75L229.407 163.457L234.927 159.463L235.308 160.005L228.865 164.662Z" fill="#CD7AEE" />
        <path d="M238.335 174.316L236.769 170.944L233.818 172.309L235.605 176.203L235.083 176.444L233.016 171.948L240.241 168.616L242.309 173.092L241.787 173.333L240.001 169.479L237.271 170.743L238.836 174.115L238.335 174.316Z" fill="#CD7AEE" />
    </g>
    <defs>
        <linearGradient id="paint0_linear_1883_7243" x1="129.135" y1="185.465" x2="142.489" y2="185.465" gradientUnits="userSpaceOnUse">
            <stop stop-color="#31C3FF" />
            <stop offset="1" stop-color="#BC35FE" />
        </linearGradient>
        <linearGradient id="paint1_linear_1883_7243" x1="140.298" y1="212.284" x2="215.735" y2="212.284" gradientUnits="userSpaceOnUse">
            <stop stop-color="#31C3FF" />
            <stop offset="1" stop-color="#BC35FE" />
        </linearGradient>
        <linearGradient id="paint2_linear_1883_7243" x1="124.121" y1="176.179" x2="135.072" y2="176.179" gradientUnits="userSpaceOnUse">
            <stop stop-color="#31C3FF" />
            <stop offset="1" stop-color="#BC35FE" />
        </linearGradient>
        <linearGradient id="paint3_linear_1883_7243" x1="136.934" y1="185.465" x2="184.568" y2="162.783" gradientUnits="userSpaceOnUse">
            <stop stop-color="#B20461" />
            <stop offset="1" stop-color="#F38F02" />
        </linearGradient>
        <linearGradient id="paint4_linear_1883_7243" x1="160.46" y1="242.63" x2="208.093" y2="219.948" gradientUnits="userSpaceOnUse">
            <stop stop-color="#B20461" />
            <stop offset="1" stop-color="#F38F02" />
        </linearGradient>
        <linearGradient id="paint5_linear_1883_7243" x1="149.125" y1="213.412" x2="187.881" y2="194.817" gradientUnits="userSpaceOnUse">
            <stop stop-color="#B20461" />
            <stop offset="1" stop-color="#F38F02" />
        </linearGradient>
        <linearGradient id="paint6_linear_1883_7243" x1="135.815" y1="148.103" x2="135.815" y2="255.829" gradientUnits="userSpaceOnUse">
            <stop offset="1.1e-07" stop-color="#D576ED" />
            <stop offset="1" stop-color="#34C2FF" />
        </linearGradient>
        <linearGradient id="paint7_linear_1883_7243" x1="178.019" y1="148.103" x2="178.019" y2="255.828" gradientUnits="userSpaceOnUse">
            <stop offset="1.1e-07" stop-color="#D576ED" />
            <stop offset="1" stop-color="#34C2FF" />
        </linearGradient>
        <linearGradient id="paint8_linear_1883_7243" x1="129.6" y1="148.103" x2="129.6" y2="255.829" gradientUnits="userSpaceOnUse">
            <stop offset="1.1e-07" stop-color="#D576ED" />
            <stop offset="1" stop-color="#34C2FF" />
        </linearGradient>
        <linearGradient id="paint9_linear_1883_7243" x1="204.048" y1="148.103" x2="204.048" y2="255.829" gradientUnits="userSpaceOnUse">
            <stop offset="1.1e-07" stop-color="#D576ED" />
            <stop offset="1" stop-color="#34C2FF" />
        </linearGradient>
        <linearGradient id="paint10_linear_1883_7243" x1="161.845" y1="148.103" x2="161.845" y2="255.828" gradientUnits="userSpaceOnUse">
            <stop offset="1.1e-07" stop-color="#D576ED" />
            <stop offset="1" stop-color="#34C2FF" />
        </linearGradient>
        <linearGradient id="paint11_linear_1883_7243" x1="210.264" y1="148.103" x2="210.264" y2="255.829" gradientUnits="userSpaceOnUse">
            <stop offset="1.1e-07" stop-color="#D576ED" />
            <stop offset="1" stop-color="#34C2FF" />
        </linearGradient>
        <linearGradient id="paint12_linear_1883_7243" x1="171.403" y1="148.103" x2="171.403" y2="255.828" gradientUnits="userSpaceOnUse">
            <stop offset="1.1e-07" stop-color="#D576ED" />
            <stop offset="1" stop-color="#34C2FF" />
        </linearGradient>
        <linearGradient id="paint13_linear_1883_7243" x1="175.973" y1="148.087" x2="175.973" y2="255.812" gradientUnits="userSpaceOnUse">
            <stop offset="1.1e-07" stop-color="#D576ED" />
            <stop offset="1" stop-color="#34C2FF" />
        </linearGradient>
        <linearGradient id="paint14_linear_1883_7243" x1="176.049" y1="148.103" x2="176.049" y2="255.829" gradientUnits="userSpaceOnUse">
            <stop offset="1.1e-07" stop-color="#D576ED" />
            <stop offset="1" stop-color="#34C2FF" />
        </linearGradient>
    </defs>
</svg>