<svg width="11" height="8" viewBox="0 0 11 8" fill="none" xmlns="http://www.w3.org/2000/svg">
    <path d="M10.2775 3.74631C10.2458 3.66454 10.1983 3.58984 10.1376 3.52649L6.80703 0.1959C6.74492 0.133792 6.67119 0.0845254 6.59004 0.0509129C6.5089 0.0173003 6.42192 0 6.33409 0C6.1567 0 5.98658 0.0704672 5.86115 0.1959C5.79904 0.258007 5.74977 0.33174 5.71616 0.412888C5.68255 0.494036 5.66525 0.58101 5.66525 0.668843C5.66525 0.846231 5.73571 1.01635 5.86115 1.14179L8.05933 3.33331H0.666118C0.489452 3.33331 0.320023 3.40349 0.195101 3.52842C0.0701802 3.65334 0 3.82277 0 3.99943C0 4.1761 0.0701802 4.34553 0.195101 4.47045C0.320023 4.59537 0.489452 4.66555 0.666118 4.66555H8.05933L5.86115 6.85708C5.79871 6.919 5.74916 6.99267 5.71534 7.07385C5.68152 7.15502 5.66411 7.24208 5.66411 7.33002C5.66411 7.41795 5.68152 7.50502 5.71534 7.58619C5.74916 7.66737 5.79871 7.74104 5.86115 7.80296C5.92307 7.8654 5.99674 7.91495 6.07792 7.94877C6.15909 7.98259 6.24615 8 6.33409 8C6.42202 8 6.50909 7.98259 6.59026 7.94877C6.67143 7.91495 6.7451 7.8654 6.80703 7.80296L10.1376 4.47238C10.1983 4.40902 10.2458 4.33432 10.2775 4.25256C10.3441 4.09038 10.3441 3.90848 10.2775 3.74631Z" fill="#D47AF5" />
</svg>