<svg width="11" height="6" viewBox="0 0 11 6" fill="none" xmlns="http://www.w3.org/2000/svg">
    <path opacity="0.5" d="M10.2074 1.70106C10.3896 1.51246 10.4904 1.25986 10.4881 0.997658C10.4858 0.735462 10.3806 0.484649 10.1952 0.299241C10.0098 0.113833 9.759 0.00866388 9.49681 0.00638546C9.23461 0.00410704 8.98201 0.104901 8.79341 0.287059L10.2074 1.70106ZM5.50041 4.99406L4.79341 5.70106C4.98094 5.88853 5.23524 5.99385 5.50041 5.99385C5.76557 5.99385 6.01988 5.88853 6.20741 5.70106L5.50041 4.99406ZM2.20741 0.287059C2.0188 0.104901 1.7662 0.00410704 1.50401 0.00638546C1.24181 0.00866388 0.990997 0.113833 0.805589 0.299241C0.620181 0.484649 0.515012 0.735462 0.512733 0.997658C0.510455 1.25986 0.611249 1.51246 0.793408 1.70106L2.20741 0.287059ZM8.79341 0.287059L4.79341 4.28706L6.20741 5.70106L10.2074 1.70106L8.79341 0.287059ZM6.20741 4.28706L2.20741 0.287059L0.793408 1.70106L4.79341 5.70106L6.20741 4.28706Z" fill="white" />
</svg>