<svg width="40" height="40" viewBox="0 0 40 40" fill="none" xmlns="http://www.w3.org/2000/svg">
    <g clip-path="url(#clip0_1350_6094)">
        <path d="M20 40C31.0457 40 40 31.0457 40 20C40 8.9543 31.0457 0 20 0C8.9543 0 0 8.9543 0 20C0 31.0457 8.9543 40 20 40Z" fill="#EDBC04" />
        <path d="M20.2611 13.8621L24.2756 17.8774C24.4201 18.0219 24.6542 18.0219 24.7985 17.8774L26.9146 15.7609C27.0589 15.6166 27.0589 15.3824 26.9146 15.2381L20.2609 8.58294C20.1166 8.4385 19.8823 8.4385 19.7381 8.58294L13.0868 15.2357C12.9424 15.38 12.9424 15.6141 13.0868 15.7586L15.2029 17.875C15.3472 18.0194 15.5813 18.0194 15.7258 17.875L19.7381 13.8621C19.8826 13.7176 20.1166 13.7176 20.2611 13.8621Z" fill="white" />
        <path d="M10.701 17.6219L8.58483 19.7384C8.44047 19.8829 8.44047 20.1169 8.58483 20.2613L10.7008 22.3777C10.8452 22.5222 11.0793 22.5222 11.2237 22.3777L13.3398 20.2612C13.4842 20.1169 13.4842 19.8827 13.3398 19.7384L11.2238 17.622C11.0795 17.4776 10.8454 17.4776 10.701 17.6219Z" fill="white" />
        <path d="M20.2605 31.4174L26.9154 24.7611C27.0597 24.6167 27.0597 24.3824 26.9151 24.2381L24.7979 22.1228C24.6535 21.9786 24.4195 21.9786 24.2751 22.123L20.2605 26.1383C20.1161 26.2827 19.8819 26.2827 19.7377 26.1383L15.7249 22.125C15.5807 21.9807 15.3469 21.9806 15.2025 22.1246L13.0833 24.2383C12.9385 24.3827 12.9384 24.617 13.0829 24.7614L19.7377 31.4174C19.8821 31.5618 20.1161 31.5618 20.2605 31.4174Z" fill="white" />
        <path d="M28.7771 17.6229L26.6609 19.7396C26.5167 19.8839 26.5167 20.118 26.6609 20.2623L28.7771 22.3789C28.9214 22.5233 29.1555 22.5233 29.2999 22.3789L31.4161 20.2623C31.5604 20.1179 31.5604 19.8837 31.4161 19.7394L29.2999 17.6229C29.1555 17.4786 28.9215 17.4786 28.7771 17.6229Z" fill="white" />
        <path d="M22.4183 19.7387L20.262 17.582C20.1177 17.4375 19.8834 17.4375 19.7391 17.582L17.5828 19.7387C17.4385 19.883 17.4385 20.1171 17.5828 20.2614L19.7391 22.4182C19.8834 22.5628 20.1177 22.5628 20.262 22.4182L22.4183 20.2614C22.5625 20.117 22.5625 19.883 22.4183 19.7387Z" fill="white" />
    </g>
    <defs>
        <clipPath id="clip0_1350_6094">
            <rect width="40" height="40" fill="white" />
        </clipPath>
    </defs>
</svg>