<svg width="32" height="32" viewBox="0 0 32 32" fill="none" xmlns="http://www.w3.org/2000/svg">
<g opacity="0.7">
<path fill-rule="evenodd" clip-rule="evenodd" d="M10.9697 10.9697C11.2626 10.6768 11.7374 10.6768 12.0303 10.9697L16 14.9393L19.9697 10.9697C20.2626 10.6768 20.7374 10.6768 21.0303 10.9697C21.3232 11.2626 21.3232 11.7374 21.0303 12.0303L17.0607 16L21.0303 19.9697C21.3232 20.2626 21.3232 20.7374 21.0303 21.0303C20.7374 21.3232 20.2626 21.3232 19.9697 21.0303L16 17.0607L12.0303 21.0303C11.7374 21.3232 11.2626 21.3232 10.9697 21.0303C10.6768 20.7374 10.6768 20.2626 10.9697 19.9697L14.9393 16L10.9697 12.0303C10.6768 11.7374 10.6768 11.2626 10.9697 10.9697Z" fill="white"/>
</g>
<rect x="0.75" y="0.75" width="30.5" height="30.5" rx="15.25" stroke="white" stroke-opacity="0.2" stroke-width="1.5"/>
</svg>
