<svg width="30" height="27" viewBox="0 0 30 27" fill="none" xmlns="http://www.w3.org/2000/svg">
<path d="M27.524 2.23077C24.2195 -0.743591 18.8721 -0.743591 15.5715 2.23077L11.7865 5.63758L13.7786 7.43064L17.5636 4.02383C19.6651 2.13233 23.2118 1.93193 25.532 4.02383C27.8561 6.11573 27.6334 9.30456 25.532 11.1961L21.747 14.6029L23.743 16.3994L27.528 12.9926C30.8247 10.0183 30.8247 5.20514 27.524 2.23077ZM12.4428 22.981C10.3413 24.8725 6.79459 25.0729 4.47439 22.981C2.15029 20.8891 2.37293 17.7003 4.47439 15.8088L8.25936 12.402L6.26337 10.6054L2.47839 14.0122C-0.826132 16.9866 -0.826132 21.7997 2.47839 24.7705C5.78292 27.7414 11.1303 27.7449 14.4309 24.7705L18.2159 21.3637L16.2238 19.5707L12.4428 22.981ZM5.16967 2.86362C5.11094 2.81127 5.03163 2.78191 4.94898 2.78191C4.86633 2.78191 4.78702 2.81127 4.72828 2.86362L3.18149 4.25587C3.12333 4.30873 3.09071 4.38012 3.09071 4.45451C3.09071 4.52891 3.12333 4.60029 3.18149 4.65316L24.8367 24.1447C24.9578 24.2537 25.157 24.2537 25.2781 24.1447L26.8249 22.7525C26.9459 22.6435 26.9459 22.4642 26.8249 22.3552L5.16967 2.86362Z" fill="#FF0000"/>
</svg>
