<svg width="30" height="30" viewBox="0 0 30 30" fill="none" xmlns="http://www.w3.org/2000/svg">
    <path fill-rule="evenodd" clip-rule="evenodd" d="M15 25C20.5229 25 25 20.5229 25 15C25 9.47715 20.5229 5 15 5C9.47715 5 5 9.47715 5 15C5 20.5229 9.47715 25 15 25ZM15 27.5C21.9035 27.5 27.5 21.9035 27.5 15C27.5 8.09644 21.9035 2.5 15 2.5C8.09644 2.5 2.5 8.09644 2.5 15C2.5 21.9035 8.09644 27.5 15 27.5Z" fill="white" />
    <path fill-rule="evenodd" clip-rule="evenodd" d="M12.574 19.4792H9V19.2884L10.261 17.8438C10.395 17.7125 10.456 17.5273 10.423 17.3468V12.3357C10.438 12.1968 10.382 12.0589 10.272 11.9654L9.151 10.6899V10.5H12.63L15.319 16.0714L17.683 10.5H21V10.6899L20.042 11.5582C19.959 11.6177 19.918 11.715 19.936 11.8123V18.1877C19.918 18.285 19.959 18.3823 20.042 18.4418L20.978 19.3101V19.5H16.272V19.3101L17.241 18.4211C17.336 18.3313 17.336 18.3048 17.336 18.1669V13.0131L14.641 19.4792H14.277L11.14 13.0131V17.3468C11.114 17.5292 11.178 17.7125 11.314 17.8438L12.574 19.2884V19.4792Z" fill="white" />
</svg>