<svg width="15" height="16" viewBox="0 0 15 16" fill="none" xmlns="http://www.w3.org/2000/svg">
    <path d="M1.72078 0.928681C1.33025 0.538157 0.69709 0.538157 0.306565 0.928681C-0.0839594 1.31921 -0.083959 1.95237 0.306565 2.34289L5.96347 7.9998L0.306716 13.6566C-0.083808 14.0471 -0.0838084 14.6802 0.306716 15.0708C0.697241 15.4613 1.33041 15.4613 1.72093 15.0708L7.37768 9.41402L13.0345 15.0708C13.425 15.4613 14.0582 15.4613 14.4487 15.0708C14.8392 14.6803 14.8392 14.0471 14.4487 13.6566L8.7919 7.9998L14.4489 2.34285C14.8394 1.95232 14.8394 1.31916 14.4489 0.928635C14.0583 0.538111 13.4252 0.538111 13.0346 0.928635L7.37768 6.58559L1.72078 0.928681Z" fill="#D9D9D9" />
</svg>