<svg width="24" height="25" viewBox="0 0 24 25" fill="none" xmlns="http://www.w3.org/2000/svg">
    <path d="M12 13.5C12.2652 13.5 12.5196 13.3946 12.7071 13.2071C12.8946 13.0196 13 12.7652 13 12.5V8.5C13 8.23478 12.8946 7.98043 12.7071 7.79289C12.5196 7.60536 12.2652 7.5 12 7.5C11.7348 7.5 11.4804 7.60536 11.2929 7.79289C11.1054 7.98043 11 8.23478 11 8.5V12.5C11 12.7652 11.1054 13.0196 11.2929 13.2071C11.4804 13.3946 11.7348 13.5 12 13.5ZM11.62 17.42C11.8635 17.52 12.1365 17.52 12.38 17.42C12.5027 17.3724 12.6149 17.301 12.71 17.21C12.7983 17.1128 12.8694 17.0012 12.92 16.88C12.976 16.7613 13.0034 16.6312 13 16.5C13.0008 16.3684 12.9755 16.2379 12.9258 16.1161C12.876 15.9943 12.8027 15.8834 12.71 15.79C12.6128 15.7017 12.5012 15.6306 12.38 15.58C12.2285 15.5178 12.064 15.4937 11.901 15.5099C11.7381 15.5261 11.5816 15.5821 11.4453 15.6729C11.309 15.7638 11.1971 15.8867 11.1195 16.0309C11.0418 16.1751 11.0008 16.3362 11 16.5C11.0037 16.7648 11.1073 17.0184 11.29 17.21C11.3851 17.301 11.4972 17.3724 11.62 17.42ZM12 22.5C13.9778 22.5 15.9112 21.9135 17.5557 20.8147C19.2002 19.7159 20.4819 18.1541 21.2388 16.3268C21.9957 14.4996 22.1937 12.4889 21.8078 10.5491C21.422 8.60929 20.4696 6.82746 19.0711 5.42893C17.6725 4.03041 15.8907 3.078 13.9509 2.69215C12.0111 2.30629 10.0004 2.50433 8.17316 3.2612C6.3459 4.01808 4.78411 5.29981 3.6853 6.9443C2.58649 8.58879 2 10.5222 2 12.5C2 13.8132 2.25865 15.1136 2.7612 16.3268C3.26375 17.5401 4.00034 18.6425 4.92893 19.5711C5.85751 20.4997 6.9599 21.2362 8.17316 21.7388C9.38642 22.2413 10.6868 22.5 12 22.5ZM12 4.5C13.5822 4.5 15.129 4.96919 16.4446 5.84824C17.7602 6.72729 18.7855 7.97672 19.391 9.43853C19.9965 10.9003 20.155 12.5089 19.8463 14.0607C19.5376 15.6126 18.7757 17.038 17.6568 18.1569C16.538 19.2757 15.1126 20.0376 13.5607 20.3463C12.0089 20.655 10.4003 20.4965 8.93853 19.891C7.47672 19.2855 6.22729 18.2602 5.34824 16.9446C4.46919 15.629 4 14.0823 4 12.5C4 10.3783 4.84285 8.34344 6.34314 6.84315C7.84343 5.34285 9.87826 4.5 12 4.5Z" fill="#F02727" />
</svg>