<svg width="16" height="20" viewBox="0 0 16 20" fill="none" xmlns="http://www.w3.org/2000/svg">
<path fill-rule="evenodd" clip-rule="evenodd" d="M3 5V6C1.34315 6 0 7.34315 0 9V17C0 18.6569 1.34315 20 3 20H13C14.6569 20 16 18.6569 16 17V9C16 7.34315 14.6569 6 13 6V5C13 2.23858 10.7614 0 8 0C5.23858 0 3 2.23858 3 5ZM8 2C6.34315 2 5 3.34315 5 5V6H11V5C11 3.34315 9.65685 2 8 2ZM10 12C10 12.7403 9.5978 13.3866 9 13.7324V15C9 15.5523 8.55228 16 8 16C7.44772 16 7 15.5523 7 15V13.7324C6.4022 13.3866 6 12.7403 6 12C6 10.8954 6.89543 10 8 10C9.10457 10 10 10.8954 10 12Z" fill="white"/>
</svg>
