<svg width="22" height="23" viewBox="0 0 22 23" fill="none" xmlns="http://www.w3.org/2000/svg">
    <path fill-rule="evenodd" clip-rule="evenodd" d="M11.0007 18.8906C15.0507 18.8906 18.334 15.6074 18.334 11.5573C18.334 7.5072 15.0507 4.22396 11.0007 4.22396C6.95056 4.22396 3.66732 7.5072 3.66732 11.5573C3.66732 15.6074 6.95056 18.8906 11.0007 18.8906ZM11.0007 20.724C16.0633 20.724 20.1673 16.6199 20.1673 11.5573C20.1673 6.49468 16.0633 2.39062 11.0007 2.39062C5.93804 2.39062 1.83398 6.49468 1.83398 11.5573C1.83398 16.6199 5.93804 20.724 11.0007 20.724Z" fill="white" />
    <path d="M10.084 6.9738C10.084 6.46753 10.4944 6.05713 11.0007 6.05713C11.5069 6.05713 11.9173 6.46753 11.9173 6.9738C13.4361 6.9738 14.6673 8.20501 14.6673 9.7238C14.6673 10.2301 14.2569 10.6405 13.7507 10.6405C13.2444 10.6405 12.834 10.2301 12.834 9.7238C12.834 9.21754 12.4236 8.80713 11.9173 8.80713H9.84878C9.47242 8.80713 9.16732 9.11223 9.16732 9.48859C9.16732 9.78192 9.35501 10.0423 9.63328 10.1351L12.9478 11.2399C13.9747 11.5822 14.6673 12.5432 14.6673 13.6257C14.6673 15.0145 13.5414 16.1405 12.1525 16.1405H11.9173C11.9173 16.6467 11.5069 17.0571 11.0007 17.0571C10.4944 17.0571 10.084 16.6467 10.084 16.1405C8.5652 16.1405 7.33398 14.9092 7.33398 13.3905C7.33398 12.8842 7.74439 12.4738 8.25065 12.4738C8.75691 12.4738 9.16732 12.8842 9.16732 13.3905C9.16732 13.8967 9.57772 14.3071 10.084 14.3071H12.1525C12.5289 14.3071 12.834 14.002 12.834 13.6257C12.834 13.3323 12.6463 13.0719 12.368 12.9792L9.05353 11.8743C8.02664 11.532 7.33398 10.571 7.33398 9.48859C7.33398 8.09971 8.4599 6.9738 9.84878 6.9738H10.084Z" fill="white" />
</svg>