<svg width="40" height="40" viewBox="0 0 40 40" fill="none" xmlns="http://www.w3.org/2000/svg">
    <g style="mix-blend-mode:luminosity">
        <path d="M38.0228 0L22.3926 12.5033L25.2954 5.12667L38.0228 0Z" fill="#E17726" />
        <path d="M1.97656 0L17.4646 12.6217L14.704 5.12667L1.97656 0Z" fill="#E27625" />
        <path d="M32.4041 28.9849L28.2461 35.8549L37.1432 38.4932L39.6859 29.1365L32.4041 28.9849Z" fill="#E27625" />
        <path d="M0.328125 29.1365L2.85537 38.4932L11.7525 35.8549L7.60999 28.9849L0.328125 29.1365Z" fill="#E27625" />
        <path d="M11.2664 17.3764L8.78711 21.4214L17.607 21.8448L17.3086 11.6064L11.2664 17.3764Z" fill="#E27625" />
        <path d="M28.7331 17.3766L22.5966 11.4883L22.3926 21.8449L31.2124 21.4216L28.7331 17.3766Z" fill="#E27625" />
        <path d="M11.7539 35.8551L17.0743 33.0617L12.4912 29.2051L11.7539 35.8551Z" fill="#E27625" />
        <path d="M22.9258 33.0617L28.2461 35.8551L27.5088 29.2051L22.9258 33.0617Z" fill="#E27625" />
        <path d="M28.2461 35.8549L22.9258 33.0615L23.3493 36.8015L23.3029 38.3749L28.2461 35.8549Z" fill="#D5BFB2" />
        <path d="M11.7539 35.8553L16.6971 38.3753L16.6662 36.802L17.0743 33.062L11.7539 35.8553Z" fill="#D5BFB2" />
        <path d="M16.7906 26.7334L12.3652 25.33L15.4876 23.79L16.7906 26.7334Z" fill="#233447" />
        <path d="M23.209 26.7334L24.512 23.79L27.6498 25.33L23.209 26.7334Z" fill="#233447" />
        <path d="M11.7538 35.8549L12.5221 28.9849L7.61133 29.1365L11.7538 35.8549Z" fill="#CC6228" />
        <path d="M27.4785 28.9849L28.2467 35.8549L32.4047 29.1365L27.4785 28.9849Z" fill="#CC6228" />
        <path d="M31.2124 21.4219L22.3926 21.8452L23.2087 26.7335L24.5118 23.7902L27.6496 25.3302L31.2124 21.4219Z" fill="#CC6228" />
        <path d="M12.3654 25.3302L15.4878 23.7902L16.7908 26.7335L17.607 21.8452L8.78711 21.4219L12.3654 25.3302Z" fill="#CC6228" />
        <path d="M8.78711 21.4219L12.4906 29.2052L12.3654 25.3302L8.78711 21.4219Z" fill="#E27525" />
        <path d="M27.6504 25.3302L27.5098 29.2052L31.2133 21.4219L27.6504 25.3302Z" fill="#E27525" />
        <path d="M17.6072 21.8447L16.791 26.7331L17.8266 32.5031L18.0461 24.9064L17.6072 21.8447Z" fill="#E27525" />
        <path d="M22.3923 21.8447L21.9688 24.8897L22.1728 32.5031L23.2084 26.7331L22.3923 21.8447Z" fill="#E27525" />
        <path d="M23.2095 26.7334L22.1738 32.5034L22.9266 33.0617L27.5096 29.2051L27.6503 25.3301L23.2095 26.7334Z" fill="#F5841F" />
        <path d="M12.3652 25.3301L12.4904 29.2051L17.0735 33.0617L17.8262 32.5034L16.7906 26.7334L12.3652 25.3301Z" fill="#F5841F" />
        <path d="M23.3035 38.375L23.3499 36.8016L22.9588 36.43H17.0418L16.6662 36.8016L16.6971 38.375L11.7539 35.855L13.4805 37.3766L16.9954 40H23.0052L26.5201 37.3766L28.2467 35.855L23.3035 38.375Z" fill="#C0AC9D" />
        <path d="M22.9261 33.0618L22.1734 32.5034H17.8268L17.0741 33.0618L16.666 36.8018L17.0416 36.4301H22.9586L23.3497 36.8018L22.9261 33.0618Z" fill="#161616" />
        <path d="M38.6812 13.3167L39.9997 6.41333L38.0228 0L22.9258 12.0817L28.733 17.3767L36.9392 19.9667L38.7446 17.6817L37.9594 17.0733L39.2145 15.8367L38.2577 15.025L39.5128 13.9933L38.6812 13.3167Z" fill="#763E1A" />
        <path d="M0 6.41333L1.33395 13.3167L0.4869 13.9933L1.74202 15.025L0.785223 15.8367L2.04034 17.0733L1.25512 17.6817L3.06051 19.9667L11.2667 17.3767L17.074 12.0817L1.97697 0L0 6.41333Z" fill="#763E1A" />
        <path d="M36.9402 19.9665L28.734 17.3765L31.2133 21.4215L27.5098 29.2048L32.405 29.1365H39.6869L36.9402 19.9665Z" fill="#F5841F" />
        <path d="M11.2656 17.3765L3.0594 19.9665L0.328125 29.1365H7.60999L12.4898 29.2048L8.78627 21.4215L11.2656 17.3765Z" fill="#F5841F" />
        <path d="M22.3915 21.8453L22.9248 12.082L25.2944 5.12695H14.7031L17.0727 12.082L17.606 21.8453L17.81 24.9236L17.8255 32.5036H22.172L22.1875 24.9236L22.3915 21.8453Z" fill="#F5841F" />
    </g>
</svg>