<svg width="22" height="23" viewBox="0 0 22 23" fill="none" xmlns="http://www.w3.org/2000/svg">
    <g clip-path="url(#clip0_2031_728)">
        <path fill-rule="evenodd" clip-rule="evenodd" d="M9.16634 17.0571V19.8071C9.16634 20.3134 9.57675 20.7238 10.083 20.7238H11.9163C12.4226 20.7238 12.833 20.3134 12.833 19.8071V17.0571H14.6663V19.8071C14.6663 21.3259 13.4351 22.5571 11.9163 22.5571H10.083C8.56422 22.5571 7.33301 21.3259 7.33301 19.8071V17.0571H9.16634Z" fill="white" />
        <path fill-rule="evenodd" clip-rule="evenodd" d="M13.7503 12.7354L14.437 12.1849C15.6981 11.174 16.5003 9.62653 16.5003 7.89046C16.5003 4.8529 14.0379 2.39046 11.0003 2.39046C7.96276 2.39046 5.50033 4.8529 5.50033 7.89046C5.50033 9.62653 6.30256 11.174 7.56369 12.1849L8.25033 12.7354V15.2238C8.25033 15.7301 8.66073 16.1405 9.16699 16.1405H12.8337C13.3399 16.1405 13.7503 15.7301 13.7503 15.2238V12.7354ZM15.5837 13.6154V15.2238C15.5837 16.7426 14.3524 17.9738 12.8337 17.9738H9.16699C7.64821 17.9738 6.41699 16.7426 6.41699 15.2238V13.6154C4.74048 12.2714 3.66699 10.2063 3.66699 7.89046C3.66699 3.84037 6.95024 0.557129 11.0003 0.557129C15.0504 0.557129 18.3337 3.84037 18.3337 7.89046C18.3337 10.2063 17.2602 12.2714 15.5837 13.6154Z" fill="white" />
        <path d="M9.81485 8.15911C9.45687 7.80113 8.87647 7.80113 8.51849 8.15911C8.1605 8.51709 8.1605 9.09749 8.51849 9.45547L10.0833 11.0203V16.1406H11.9167V11.0203L13.4815 9.45547C13.8395 9.09749 13.8395 8.51709 13.4815 8.15911C13.1235 7.80113 12.5431 7.80113 12.1852 8.15911L11 9.34426L9.81485 8.15911Z" fill="white" />
    </g>
    <defs>
        <clipPath id="clip0_2031_728">
            <rect width="22" height="22" fill="white" transform="translate(0 0.557129)" />
        </clipPath>
    </defs>
</svg>