<svg width="22" height="23" viewBox="0 0 22 23" fill="none" xmlns="http://www.w3.org/2000/svg">
    <path fill-rule="evenodd" clip-rule="evenodd" d="M8.25065 18.8906C10.782 18.8906 12.834 16.8386 12.834 14.3073C12.834 11.776 10.782 9.72396 8.25065 9.72396C5.71935 9.72396 3.66732 11.776 3.66732 14.3073C3.66732 16.8386 5.71935 18.8906 8.25065 18.8906ZM8.25065 20.724C11.7945 20.724 14.6673 17.8511 14.6673 14.3073C14.6673 10.7635 11.7945 7.89062 8.25065 7.89062C4.70682 7.89062 1.83398 10.7635 1.83398 14.3073C1.83398 17.8511 4.70682 20.724 8.25065 20.724Z" fill="white" />
    <path fill-rule="evenodd" clip-rule="evenodd" d="M13.7506 4.22396C12.3932 4.22396 11.1746 4.81283 10.3341 5.75196C9.99646 6.1292 9.41695 6.1613 9.03971 5.82367C8.66248 5.48603 8.63038 4.90652 8.96801 4.52929C10.1416 3.21801 11.8501 2.39062 13.7506 2.39062C17.2944 2.39062 20.1672 5.26346 20.1672 8.80729C20.1672 10.7078 19.3399 12.4162 18.0286 13.5899C17.6514 13.9275 17.0718 13.8954 16.7342 13.5182C16.3966 13.1409 16.4287 12.5614 16.8059 12.2238C17.745 11.3832 18.3339 10.1646 18.3339 8.80729C18.3339 6.27599 16.2819 4.22396 13.7506 4.22396Z" fill="white" />
</svg>