<svg width="22" height="22" viewBox="0 0 22 22" fill="none" xmlns="http://www.w3.org/2000/svg">
<g opacity="0.4">
<path fill-rule="evenodd" clip-rule="evenodd" d="M11 11.9168C7.45617 11.9168 4.58333 14.7897 4.58333 18.3335V20.1668C4.58333 20.6731 4.17293 21.0835 3.66667 21.0835C3.16041 21.0835 2.75 20.6731 2.75 20.1668V18.3335C2.75 13.7771 6.44365 10.0835 11 10.0835C15.5563 10.0835 19.25 13.7771 19.25 18.3335V20.1668C19.25 20.6731 18.8396 21.0835 18.3333 21.0835C17.8271 21.0835 17.4167 20.6731 17.4167 20.1668V18.3335C17.4167 14.7897 14.5438 11.9168 11 11.9168Z" fill="white"/>
<path fill-rule="evenodd" clip-rule="evenodd" d="M11 10.0832C13.025 10.0832 14.6667 8.44155 14.6667 6.4165C14.6667 4.39146 13.025 2.74984 11 2.74984C8.97496 2.74984 7.33333 4.39146 7.33333 6.4165C7.33333 8.44155 8.97496 10.0832 11 10.0832ZM11 11.9165C14.0376 11.9165 16.5 9.45407 16.5 6.4165C16.5 3.37894 14.0376 0.916504 11 0.916504C7.96243 0.916504 5.5 3.37894 5.5 6.4165C5.5 9.45407 7.96243 11.9165 11 11.9165Z" fill="white"/>
</g>
</svg>
