<svg width="22" height="23" viewBox="0 0 22 23" fill="none" xmlns="http://www.w3.org/2000/svg">
    <path fill-rule="evenodd" clip-rule="evenodd" d="M11 12.474C7.45617 12.474 4.58333 15.3468 4.58333 18.8906V20.724C4.58333 21.2302 4.17293 21.6406 3.66667 21.6406C3.16041 21.6406 2.75 21.2302 2.75 20.724V18.8906C2.75 14.3343 6.44365 10.6406 11 10.6406C15.5563 10.6406 19.25 14.3343 19.25 18.8906V20.724C19.25 21.2302 18.8396 21.6406 18.3333 21.6406C17.8271 21.6406 17.4167 21.2302 17.4167 20.724V18.8906C17.4167 15.3468 14.5438 12.474 11 12.474Z" fill="white" />
    <path fill-rule="evenodd" clip-rule="evenodd" d="M11 10.6403C13.025 10.6403 14.6667 8.99868 14.6667 6.97363C14.6667 4.94859 13.025 3.30697 11 3.30697C8.97496 3.30697 7.33333 4.94859 7.33333 6.97363C7.33333 8.99868 8.97496 10.6403 11 10.6403ZM11 12.4736C14.0376 12.4736 16.5 10.0112 16.5 6.97363C16.5 3.93607 14.0376 1.47363 11 1.47363C7.96243 1.47363 5.5 3.93607 5.5 6.97363C5.5 10.0112 7.96243 12.4736 11 12.4736Z" fill="white" />
</svg>