<svg width="22" height="23" viewBox="0 0 22 23" fill="none" xmlns="http://www.w3.org/2000/svg">
    <path d="M20.9536 5.31415C20.9558 5.30666 20.9588 5.29954 20.9614 5.29243C20.9678 5.2752 20.9738 5.2576 20.9794 5.24L20.9985 5.17933V4.39175L20.9865 4.34344C20.9772 4.30599 20.9685 4.26816 20.9599 4.23034C20.939 4.13858 20.9172 4.04421 20.8873 3.94571C20.4858 2.63195 19.6031 1.84213 18.2631 1.5972C18.2568 1.59533 18.2508 1.59308 18.2448 1.59083C18.2294 1.58559 18.2141 1.58035 18.1987 1.57548L18.1395 1.55713H17.4325L17.3879 1.56724C17.3456 1.5766 17.3029 1.58597 17.2602 1.59495C17.1613 1.6163 17.0591 1.63802 16.9546 1.66611C16.3494 1.8279 15.8289 2.14398 15.403 2.60686C12.4688 1.24929 9.51659 1.24592 6.61943 2.59638C6.51831 2.50912 6.41907 2.42411 6.31945 2.33909C5.85057 1.93875 5.30941 1.68933 4.71171 1.59758C4.70272 1.59533 4.69373 1.59196 4.68474 1.58934C4.66714 1.58372 4.64954 1.5781 4.63231 1.57323L4.57763 1.55788H3.83499L3.78743 1.56949C3.75148 1.5781 3.71553 1.58634 3.67957 1.59458C3.59232 1.61443 3.50206 1.63465 3.40843 1.66274C2.10216 2.05335 1.30747 2.92294 1.04531 4.24719C1.04382 4.25056 1.04269 4.2543 1.0412 4.25768C1.03483 4.2734 1.02884 4.28913 1.02322 4.30524L1 4.37152V5.16547L1.01161 5.21378C1.02097 5.25273 1.03033 5.29168 1.0397 5.33063C1.06067 5.41789 1.08202 5.50814 1.10636 5.59877C1.26702 6.20135 1.54078 6.65525 2.0531 7.1481C0.694779 10.0707 0.69403 13.033 2.05123 15.9617C1.98981 16.0186 1.92802 16.0781 1.86735 16.1429C1.42731 16.6126 1.15055 17.1728 1.04419 17.8087C1.04382 17.8098 1.04344 17.8106 1.04307 17.8117C1.03633 17.8286 1.02959 17.8454 1.02359 17.8626L1 17.9289V18.7229L1.01161 18.7708C1.0206 18.8083 1.02921 18.8461 1.03782 18.8839C1.0588 18.9757 1.08014 19.0708 1.11048 19.1693C1.5127 20.4819 2.3954 21.2714 3.73425 21.5167C3.74024 21.5186 3.74624 21.5208 3.75185 21.5227C3.76721 21.5279 3.78294 21.5335 3.79829 21.538L3.85821 21.5568H4.56602L4.61097 21.5466C4.65328 21.5369 4.69598 21.5279 4.73867 21.5186C4.83717 21.4972 4.93903 21.4751 5.04277 21.4478C5.64609 21.2871 6.16665 20.9714 6.59471 20.5074C8.0534 21.1822 9.53082 21.5245 10.9914 21.5253H10.9959C12.4583 21.5253 13.9399 21.1826 15.4034 20.5066C15.9172 21.0632 16.5524 21.4028 17.295 21.5174C17.298 21.5186 17.3014 21.5197 17.3044 21.5208C17.3209 21.5268 17.3377 21.5328 17.3542 21.538L17.4145 21.5571H18.1257L18.1732 21.5459C18.2268 21.5332 18.2807 21.5216 18.3347 21.5103C18.4695 21.4819 18.6092 21.4523 18.753 21.4021C19.9667 20.9796 20.7068 20.1269 20.9524 18.8682C20.9536 18.8652 20.9547 18.8622 20.9558 18.8596C20.9622 18.8435 20.9685 18.8277 20.9742 18.8116L20.9978 18.745V17.9503L20.9858 17.902C20.9764 17.863 20.967 17.8241 20.9577 17.7851C20.9367 17.6979 20.9154 17.6076 20.891 17.5166C20.7285 16.9114 20.412 16.3894 19.9476 15.9609C21.3082 13.0259 21.3131 10.0767 19.9622 7.18555C20.0357 7.09342 20.1064 7.00578 20.1787 6.92377C20.5865 6.46013 20.8472 5.91897 20.9532 5.31565L20.9536 5.31415ZM17.116 3.69405C17.4021 3.50792 17.7096 3.45998 18.0594 3.54237C18.5867 3.66671 18.8998 3.98391 19.017 4.51309C19.0934 4.85763 19.044 5.16023 18.862 5.44073C18.3504 4.78685 17.774 4.21011 17.116 3.69405V3.69405ZM15.5588 14.5865C16.7962 12.5784 16.791 10.5362 15.5431 8.50717L17.3587 6.69158C18.3654 7.94392 18.9627 9.61196 19.0114 11.3365C19.0634 13.1896 18.486 14.9726 17.3782 16.4051L15.5592 14.5865H15.5588ZM10.9978 15.0771H10.9944C9.05595 15.0752 7.47892 13.4963 7.47892 11.5571C7.47892 10.616 7.8463 9.73142 8.51404 9.06593C9.17954 8.40231 10.0626 8.03717 11.0011 8.03717C11.0049 8.03717 11.0082 8.03717 11.012 8.03717C12.95 8.04279 14.5233 9.62619 14.5192 11.5661C14.5151 13.503 12.9358 15.0775 10.9978 15.0775V15.0771ZM14.1473 7.07769C13.1028 6.40845 12.052 6.07364 11.0004 6.07364C9.94877 6.07364 8.89791 6.40808 7.85192 7.07694L6.04344 5.26809C7.30252 4.2176 9.00315 3.59518 10.7764 3.54612C12.6823 3.49369 14.5065 4.10263 15.9596 5.26771L14.147 7.07731L14.1473 7.07769ZM2.98487 11.4759C3.0036 9.69734 3.58707 8.01545 4.63718 6.69195L6.45165 8.50979C5.2068 10.5235 5.2053 12.5687 6.44791 14.5977L4.62969 16.4167C3.54737 15.0295 2.96614 13.2918 2.98487 11.4759V11.4759ZM7.8523 16.0377C9.93828 17.3758 12.052 17.3765 14.1436 16.0396L15.9547 17.8503C13.1242 20.1482 8.84885 20.1464 6.04007 17.8465L7.8523 16.0373V16.0377ZM3.13542 5.44335C2.97326 5.19543 2.91821 4.92616 2.96277 4.6187C3.04591 4.04795 3.35525 3.69892 3.9084 3.55136C4.02786 3.51953 4.14284 3.50343 4.25444 3.50343C4.47577 3.50343 4.68287 3.56672 4.88211 3.69592C4.22373 4.21199 3.64699 4.7891 3.13542 5.44335V5.44335ZM3.13654 17.6739C3.65074 18.33 4.22672 18.9068 4.88173 19.4195C4.60123 19.6015 4.29938 19.6505 3.95521 19.5745C3.4324 19.4588 3.11595 19.1502 2.98787 18.6311C2.90098 18.2787 2.94817 17.9671 3.13654 17.6739V17.6739ZM18.8653 17.6694C19.0503 17.951 19.0971 18.2585 19.0121 18.6139C18.8852 19.1461 18.5751 19.4603 18.0646 19.5738C17.7104 19.6524 17.4018 19.6037 17.1171 19.4198C17.7766 18.9023 18.3538 18.3244 18.8653 17.6694V17.6694Z" fill="white" />
</svg>