<svg width="22" height="20" viewBox="0 0 22 20" fill="none" xmlns="http://www.w3.org/2000/svg">
<path fill-rule="evenodd" clip-rule="evenodd" d="M10.9923 2.8235L11 2.81952L11.008 2.82367L15.0903 5.27306L16.5 6.12238V16.2333C16.5 16.7769 16.4985 17.0744 16.4811 17.2881L16.479 17.3123L16.4548 17.3144C16.241 17.3319 15.9436 17.3333 15.4 17.3333H6.59995C6.05632 17.3333 5.75885 17.3319 5.54511 17.3144L5.52094 17.3123L5.51884 17.2881C5.50138 17.0744 5.49995 16.7769 5.49995 16.2333V6.1224L6.90444 5.2762L10.9923 2.8235ZM5.95983 3.70495L1.36169 6.46384C0.927573 6.72431 0.786805 7.28738 1.04727 7.72149C1.30774 8.15561 1.87082 8.29638 2.30493 8.03591L3.66662 7.2189V16.2333C3.66662 17.26 3.66662 17.7734 3.86644 18.1656C4.04221 18.5106 4.32267 18.791 4.66763 18.9668C5.05981 19.1666 5.57319 19.1666 6.59995 19.1666H15.4C16.4267 19.1666 16.9401 19.1666 17.3323 18.9668C17.6772 18.791 17.9577 18.5106 18.1335 18.1656C18.3333 17.7734 18.3333 17.26 18.3333 16.2333V7.21886L19.695 8.03591C20.1291 8.29638 20.6922 8.15561 20.9527 7.72149C21.2131 7.28738 21.0724 6.72431 20.6383 6.46384L16.0348 3.70178L12.5137 1.58035C12.2577 1.42611 12.0613 1.30775 11.8948 1.21875C11.8559 1.19702 11.8165 1.1768 11.7765 1.15811C11.638 1.09049 11.5179 1.04549 11.3945 1.0183C11.1346 0.961023 10.8653 0.961023 10.6054 1.0183C10.4817 1.04556 10.3613 1.09073 10.2223 1.15864C10.183 1.17702 10.1443 1.19688 10.1061 1.2182C9.93943 1.30726 9.7427 1.42579 9.48617 1.58035L5.95983 3.70495Z" fill="white"/>
</svg>
