<svg width="61" height="60" viewBox="0 0 61 60" fill="none" xmlns="http://www.w3.org/2000/svg">
<path fill-rule="evenodd" clip-rule="evenodd" d="M19.4212 2.3221C19.3749 2.28609 19.3354 2.25684 19.2997 2.23041C19.2539 2.19656 19.2144 2.16732 19.1749 2.13438C18.6938 1.7472 18.553 1.24269 18.776 0.738189C19.0106 0.198485 19.5151 -0.106565 20.1017 0.0342273C21.4275 0.35101 22.7416 0.679525 24.0557 1.05497C24.9004 1.30136 25.1703 2.12265 24.6892 2.88527C23.997 3.97641 23.293 5.04409 22.5773 6.11176C22.155 6.73359 21.451 6.88612 20.8996 6.51067C20.3364 6.12349 20.2308 5.46646 20.618 4.80943C20.7001 4.68037 20.7705 4.55131 20.794 4.30493C20.5486 4.4152 20.3026 4.52352 20.0569 4.63173L20.0569 4.63175C19.2568 4.98407 18.4595 5.33516 17.6965 5.74805C9.94124 10.0305 5.14257 16.4952 3.47653 25.2126C3.29401 26.1807 3.23494 27.1703 3.17589 28.1596C3.14763 28.633 3.11938 29.1063 3.07761 29.5771C3.07473 29.6131 3.07203 29.6491 3.06933 29.6851C3.05003 29.9421 3.0309 30.1969 2.94855 30.4336C2.77256 30.9381 2.20939 31.2314 1.68142 31.1493C1.14172 31.0672 0.70761 30.6096 0.70761 29.9995C0.695878 29.1665 0.719343 28.3217 0.801472 27.4887C1.17692 23.2767 2.32672 19.311 4.40341 15.6152C7.75896 9.61984 12.628 5.26701 18.9519 2.53329C19.0282 2.50153 19.1044 2.46633 19.1881 2.4277L19.1881 2.42767C19.259 2.39495 19.3352 2.35976 19.4212 2.3221ZM14.7393 38.4004C14.6206 38.1036 14.504 37.8078 14.3878 37.5134L14.3877 37.513L14.3877 37.5129L14.3877 37.5129L14.3876 37.5128C14.1137 36.8182 13.8427 36.1311 13.5543 35.4555C13.4957 35.3147 13.2493 35.1856 13.085 35.1739C12.746 35.1547 12.407 35.1564 12.0662 35.1582H12.066C11.7817 35.1596 11.4959 35.1611 11.2078 35.1504C10.4569 35.127 9.99933 34.6811 9.99933 33.942C9.9876 31.3021 9.9876 28.674 9.99933 26.0341C9.99933 25.295 10.4569 24.8491 11.2195 24.8374C11.4524 24.833 11.687 24.8336 11.922 24.8341H11.9221H11.9223H11.9224H11.9225H11.9227C12.3148 24.835 12.7081 24.8359 13.0968 24.8139C13.261 24.8022 13.4957 24.6614 13.5543 24.5206C13.8561 23.8136 14.1389 23.1002 14.4352 22.3526L14.4354 22.3522C14.5423 22.0826 14.6509 21.8086 14.7628 21.5288C14.5985 21.3686 14.4265 21.2055 14.2509 21.0387C13.9374 20.7413 13.612 20.4324 13.2962 20.1091C12.6627 19.4638 12.6627 18.8537 13.2845 18.2202C15.0913 16.4016 16.8982 14.5948 18.705 12.7997C19.362 12.1426 19.9604 12.1544 20.6292 12.8231C21.1102 13.3042 21.5795 13.7969 22.0253 14.2662L22.3754 14.1287C23.2934 13.7682 24.1775 13.421 25.0524 13.046C25.1814 12.9874 25.2988 12.7645 25.3105 12.6237C25.3297 12.2717 25.3279 11.9197 25.3262 11.5677V11.5676C25.3248 11.2743 25.3233 10.981 25.334 10.6878C25.3574 9.97208 25.8033 9.51451 26.519 9.51451C29.1706 9.50278 31.8221 9.50278 34.4855 9.51451C35.1894 9.51451 35.6353 9.97208 35.6587 10.6995C35.6694 10.982 35.6679 11.2669 35.6665 11.552V11.5521V11.5522V11.5523V11.5524V11.5524C35.6647 11.8948 35.663 12.2375 35.6822 12.5767C35.6939 12.7527 35.8465 13.0108 35.999 13.0695C36.6471 13.3496 37.3008 13.6078 37.9934 13.8815L37.9939 13.8817C38.3166 14.0092 38.6478 14.14 38.9908 14.278C39.128 14.133 39.2717 13.9775 39.4207 13.8163C39.7176 13.4951 40.0354 13.1513 40.3635 12.8231C41.0206 12.1544 41.6307 12.1544 42.2877 12.8114C44.0828 14.5948 45.8779 16.3899 47.673 18.1967C48.3535 18.8772 48.3418 19.4756 47.6495 20.1678C47.2037 20.6254 46.7461 21.0829 46.2885 21.5405C46.2651 21.564 46.2416 21.5992 46.2533 21.5992C46.3721 21.896 46.4887 22.1918 46.6048 22.4862L46.6049 22.4864L46.6051 22.4868L46.6051 22.4869L46.6052 22.487L46.6052 22.4871C46.8791 23.1816 47.15 23.8686 47.4383 24.5441C47.497 24.6849 47.7434 24.8257 47.9077 24.8257C48.2467 24.8449 48.5857 24.8431 48.9266 24.8414H48.9267H48.9268H48.9268H48.9269H48.9269C49.2112 24.8399 49.4968 24.8385 49.7849 24.8491C50.5358 24.8726 50.9934 25.3067 50.9934 26.0576C51.0051 28.6975 51.0051 31.3256 50.9934 33.9654C50.9934 34.7046 50.5358 35.1504 49.7732 35.1739C49.5402 35.1783 49.3057 35.1777 49.0707 35.1772H49.0706H49.0704H49.0703H49.0701H49.07H49.07H49.0699H49.0698H49.0698H49.0697C48.6777 35.1763 48.2845 35.1754 47.8959 35.1974C47.7317 35.2091 47.497 35.3499 47.4383 35.4907C47.1703 36.1188 46.9172 36.7568 46.6563 37.4147C46.5175 37.7646 46.3765 38.12 46.2299 38.4825C46.4037 38.6519 46.586 38.8263 46.7722 39.0045C47.0763 39.2955 47.3909 39.5966 47.6965 39.9022C48.33 40.5475 48.33 41.1576 47.7082 41.7911C45.9014 43.6097 44.0945 45.4165 42.2877 47.2116C41.6307 47.8569 41.0323 47.8452 40.3635 47.1882C39.8825 46.7071 39.4132 46.2144 38.9556 45.7333C38.3982 45.9621 37.8555 46.188 37.3128 46.4139C36.7702 46.6397 36.2277 46.8656 35.6705 47.0943C35.6705 47.3135 35.6717 47.5376 35.673 47.7656C35.6756 48.2334 35.6783 48.7171 35.6705 49.2062C35.6587 50.0627 35.2246 50.4968 34.3681 50.4968H26.6363C25.7798 50.4968 25.3574 50.0627 25.3457 49.1945C25.3414 48.9725 25.3434 48.7522 25.3453 48.5322V48.532C25.3487 48.1474 25.3521 47.764 25.3222 47.3759C25.3105 47.2116 25.158 46.9887 25.0054 46.9301C24.0884 46.5451 23.1604 46.182 22.1265 45.7775L22.0136 45.7333C21.8897 45.8641 21.7618 46.0009 21.6304 46.1415L21.6299 46.142L21.6298 46.1421L21.6298 46.1421L21.6295 46.1424L21.6293 46.1427C21.3131 46.4809 20.977 46.8404 20.6292 47.1882C19.9721 47.8452 19.362 47.8569 18.705 47.1999L13.3197 41.8146C12.6392 41.1341 12.6509 40.5357 13.3432 39.8435C13.789 39.3859 14.2466 38.9284 14.7041 38.4708C14.7276 38.4356 14.7511 38.4004 14.7393 38.4004ZM45.2913 19.2409L45.2899 19.2396C43.9294 17.8791 42.6158 16.5654 41.3139 15.2518C41.3139 15.2518 41.2904 15.2518 41.2787 15.2635C41.1388 15.3996 41.0001 15.5356 40.8619 15.6712C40.583 15.9449 40.3057 16.217 40.0233 16.4837C39.4484 17.0352 39.0495 17.0352 38.3338 16.7066C37.0432 16.1317 35.7291 15.5803 34.4151 15.0758C33.6055 14.7708 33.3239 14.4774 33.3239 13.574V11.861H27.7626C27.7517 11.8938 27.7383 11.9189 27.727 11.9399C27.714 11.9642 27.704 11.983 27.704 12.0018C27.6922 12.5533 27.6922 13.093 27.6922 13.6444C27.6805 14.4774 27.3872 14.7825 26.6011 15.0875C25.2753 15.592 23.973 16.1317 22.6824 16.7184C21.9549 17.0469 21.556 17.0469 20.9929 16.4955C20.7223 16.2248 20.4613 15.9398 20.2068 15.6619C20.0641 15.506 19.9235 15.3524 19.7844 15.2049L19.7841 15.2052L19.7835 15.2058C18.3994 16.5899 17.0973 17.892 15.7014 19.2761C15.8232 19.3875 15.9492 19.5009 16.0774 19.6164L16.0774 19.6164L16.0776 19.6165L16.0776 19.6166C16.3816 19.8904 16.6985 20.1758 17.0038 20.4728C17.5669 21.036 17.5669 21.4467 17.2384 22.1623C16.6518 23.4764 16.1003 24.8022 15.5841 26.1397C15.3025 26.8906 14.9857 27.1722 14.1762 27.1839H12.4045V32.7922C12.4359 32.7966 12.4621 32.8011 12.4845 32.805C12.5208 32.8111 12.547 32.8156 12.5688 32.8156H14.094C15.0209 32.8156 15.3142 33.0972 15.6193 33.942C16.1003 35.2326 16.6166 36.5114 17.1915 37.7668C17.5669 38.5881 17.5787 38.9518 16.9334 39.5971C16.6406 39.8899 16.33 40.1588 16.0567 40.3953L16.0564 40.3955C15.9465 40.4907 15.8426 40.5807 15.7484 40.6648C17.1563 42.0845 18.4586 43.3985 19.7961 44.7595C19.8684 44.6823 19.9417 44.6034 20.0161 44.5234C20.292 44.2269 20.5823 43.9146 20.8873 43.6097C21.5678 42.9292 21.908 42.9409 22.7528 43.3281C24.0082 43.903 25.287 44.4193 26.5776 44.9003C27.3989 45.2054 27.6922 45.4987 27.6922 46.3786V48.1151H33.3239V46.3786C33.3239 45.5221 33.6055 45.2171 34.3799 44.9238C35.7057 44.4193 37.0197 43.8796 38.3103 43.3047C39.0729 42.9644 39.4601 42.9527 40.0468 43.5393C40.3733 43.8658 40.6787 44.2204 40.9523 44.5379C41.0327 44.6312 41.1103 44.7212 41.1848 44.8064C42.1313 43.8678 43.0256 42.9709 43.9198 42.074C44.367 41.6256 44.8141 41.1771 45.2678 40.7235C45.1401 40.6031 45.0067 40.4804 44.8705 40.3551C44.5687 40.0775 44.2529 39.787 43.9537 39.4798C43.461 38.9753 43.461 38.5646 43.7308 37.9311C44.3292 36.5584 44.9041 35.1856 45.4555 33.7894C45.7136 33.1324 46.0422 32.8391 46.7461 32.8274C47.1585 32.8196 47.5658 32.8221 47.9816 32.8247H47.9823H47.983H47.9837H47.9845C48.1946 32.826 48.407 32.8274 48.6233 32.8274V27.1957H46.7813C46.0422 27.1839 45.7254 26.9024 45.4555 26.2101C44.9158 24.8374 44.3526 23.4764 43.7543 22.1271C43.461 21.4584 43.4727 21.0595 43.9772 20.5315C44.302 20.1696 44.6488 19.8444 45.006 19.5095L45.0061 19.5094L45.0063 19.5091L45.0064 19.5091C45.1007 19.4207 45.1957 19.3316 45.2913 19.2409ZM60.3297 20.3221L60.474 19.8039C60.474 19.5341 60.474 19.2525 60.4858 18.9826C59.7701 17.9149 59.0426 17.8797 58.151 18.877C58.0728 18.6894 57.9946 18.5123 57.9165 18.3351L57.9163 18.3348C57.8772 18.2461 57.8381 18.1574 57.799 18.0675C56.6844 15.5097 55.2413 13.1632 53.4696 11.0161C52.8595 10.277 51.8974 10.3004 51.4633 11.0631C51.1465 11.6145 51.3343 12.0838 51.6745 12.5766C51.8466 12.8288 52.0193 13.0808 52.1921 13.3327C53.0557 14.5923 53.9194 15.852 54.7015 17.1523C55.1068 17.8198 55.4205 18.541 55.7339 19.2614L55.7341 19.2618C55.8834 19.605 56.0326 19.948 56.1916 20.2849C55.9921 20.2967 55.91 20.2498 55.8279 20.2028C55.0418 19.7335 54.373 19.8039 53.9741 20.4023C53.5635 21.0124 53.7864 21.6929 54.5725 22.2091C55.0469 22.5195 55.5184 22.827 55.9898 23.1345L55.9925 23.1362L55.9933 23.1367L55.9949 23.1378C56.4662 23.4452 56.9375 23.7526 57.4118 24.0629C58.4443 24.7434 59.2186 24.4266 59.5354 23.2181C59.7941 22.2431 60.0612 21.2849 60.3297 20.3221ZM40.6797 59.9766L40.68 59.9767H40.6802C40.9617 59.9767 41.2315 59.9767 41.5013 60.0002C41.9237 59.7303 42.3695 59.4253 42.2874 58.8738C42.2385 58.5721 42.0875 58.2873 41.933 57.9959L41.933 57.9959C41.8652 57.8681 41.7968 57.739 41.736 57.6067C41.7647 57.5944 41.8063 57.5749 41.8568 57.5513L41.8569 57.5512C41.9509 57.5073 42.0756 57.4489 42.2053 57.3955C50.2774 53.7701 55.8387 47.8216 58.7718 39.4562C59.8161 36.4644 60.2619 33.367 60.3088 30.2109C60.3206 29.3074 59.7457 28.7325 58.9596 28.8264C58.3377 28.9085 57.9858 29.4248 57.9154 30.2343C57.8729 30.7211 57.8413 31.2098 57.8098 31.6982L57.8098 31.6984L57.8098 31.6987L57.8097 31.699L57.8097 31.6993L57.8097 31.6996C57.728 32.9646 57.6465 34.2283 57.3757 35.4554C55.3694 44.5951 50.031 51.1068 41.56 55.0724C41.2817 55.2042 40.9944 55.3223 40.6779 55.4524C40.4872 55.5307 40.286 55.6134 40.0699 55.706C40.1873 55.4948 40.2342 55.4127 40.2811 55.3306C40.7739 54.5327 40.68 53.8288 40.0465 53.4416C39.4364 53.0779 38.7911 53.3008 38.2866 54.0634C37.7828 54.8191 37.2938 55.5674 36.802 56.32L36.8015 56.3208L36.4211 56.9027C35.7523 57.9469 36.0691 58.7213 37.2658 59.0381C38.4038 59.3431 39.5418 59.6599 40.6797 59.9766ZM2.7167 41.2503C2.75028 41.2041 2.78676 41.1539 2.8311 41.0985C2.85561 41.151 2.87908 41.2004 2.9015 41.2476C2.9542 41.3585 3.00113 41.4573 3.04229 41.5561C6.71462 49.8511 12.8274 55.4945 21.4157 58.4042C24.2902 59.3663 27.282 59.7769 30.3208 59.8121C31.2007 59.8239 31.7756 59.202 31.6349 58.4159C31.5293 57.8058 31.0248 57.4891 30.2387 57.4187C29.7735 57.3784 29.306 57.3462 28.8379 57.3141C27.5348 57.2246 26.2278 57.1348 24.959 56.8672C17.0042 55.1777 10.9619 50.7428 6.79675 43.7735C6.27644 42.9064 5.84089 41.9915 5.40466 41.0753L5.40463 41.0752C5.19165 40.6278 4.97851 40.1801 4.75526 39.7375C4.77241 39.7272 4.78856 39.7179 4.804 39.7091L4.80479 39.7086L4.80495 39.7085L4.80499 39.7085L4.80507 39.7084L4.80518 39.7084L4.80533 39.7083C4.84215 39.6871 4.87497 39.6683 4.90779 39.6436C4.96645 39.6788 5.02381 39.7153 5.08117 39.7518L5.08125 39.7519L5.08129 39.7519C5.19597 39.8249 5.31065 39.8979 5.43576 39.9604C6.03412 40.2655 6.70289 40.0895 7.0314 39.5615C7.34819 39.057 7.24259 38.3648 6.71462 38.0011C5.57655 37.2267 4.42675 36.4523 3.24174 35.7367C2.59645 35.3377 1.79862 35.6428 1.58744 36.3702C1.20026 37.7077 0.860009 39.0687 0.543226 40.4415C0.414167 41.0164 0.719217 41.4974 1.23545 41.7203C1.77516 41.955 2.221 41.8025 2.60818 41.3918C2.64532 41.3485 2.6792 41.3019 2.7167 41.2503ZM44.6929 3.78838C40.6686 1.62957 36.3862 0.421098 31.8104 0.221642C31.5406 0.198177 31.2707 0.174712 30.9891 0.174712C30.9555 0.174712 30.9217 0.17453 30.8878 0.174347C30.6495 0.173063 30.4056 0.171749 30.1796 0.233375C29.6516 0.374167 29.3466 0.737881 29.3231 1.28932C29.2879 1.86422 29.5695 2.27486 30.1092 2.45085C30.4025 2.54472 30.731 2.55645 31.0361 2.55645C33.5703 2.59165 36.0694 2.93189 38.4511 3.75318C40.0279 4.2926 41.5496 4.97876 43.0731 5.66571L43.0731 5.66573C43.2728 5.75574 43.4724 5.84576 43.6722 5.93546C44.5756 6.33437 45.4204 6.00586 45.5611 5.11417C45.6315 4.5862 45.35 4.14036 44.6929 3.78838ZM48.7186 9.12712C48.0733 9.10366 47.5688 8.56395 47.5923 7.89519C47.6157 7.22643 48.1437 6.74539 48.8125 6.76885C49.4461 6.80405 49.9388 7.32029 49.9388 7.95385C49.9154 8.58742 49.3405 9.13885 48.7186 9.12712ZM40.5385 31.2219C40.5392 30.8266 40.5399 30.431 40.5399 30.0346C40.5399 28.392 40.5399 26.7494 40.5282 25.1069C40.5399 24.5085 40.317 24.0627 39.7773 23.7576C36.9497 22.1385 34.1104 20.4959 31.2828 18.8533C30.7431 18.5366 30.2504 18.5483 29.6989 18.8651C26.8948 20.5077 24.079 22.1268 21.2514 23.7459C20.6882 24.0627 20.4536 24.4968 20.4536 25.1186C20.4653 28.3568 20.4653 31.595 20.4536 34.8333C20.4536 35.4903 20.7117 35.9244 21.2866 36.2529C24.079 37.8486 26.8714 39.456 29.6403 41.0751C30.2504 41.4388 30.7901 41.427 31.3884 41.0751C34.1456 39.4677 36.9145 37.872 39.6835 36.2881C40.2936 35.9479 40.5634 35.4786 40.5517 34.7746C40.5341 33.5871 40.5363 32.4061 40.5385 31.2219ZM25.6595 25.8212C25.1186 25.5141 24.5721 25.2038 24.0203 24.8839C26.1439 23.652 28.1972 22.467 30.2738 21.3055C30.4029 21.2351 30.6258 21.2351 30.7549 21.3055C32.8198 22.4787 34.8731 23.6637 36.9967 24.8957C36.4701 25.1995 35.9455 25.4964 35.4246 25.7914C34.1346 26.5216 32.8667 27.2393 31.6466 28.0166C30.8018 28.5445 30.1917 28.5445 29.3587 28.0048C28.1588 27.2405 26.9244 26.5396 25.6595 25.8212ZM22.8698 27.1219C22.8771 27.0798 22.8855 27.0314 22.894 26.9724C22.9462 27.002 22.9978 27.0313 23.0488 27.0603C23.4213 27.2721 23.7619 27.4657 24.1024 27.6411C24.4146 27.8211 24.7267 28.0007 25.0387 28.1801C26.3332 28.9248 27.6248 29.6677 28.9011 30.4335C29.0888 30.5508 29.3118 30.8324 29.3118 31.0319C29.3294 32.7394 29.3272 34.4534 29.325 36.1642C29.3242 36.734 29.3235 37.3034 29.3235 37.872C29.3235 37.9133 29.3119 37.9545 29.2968 38.008C29.2905 38.0306 29.2835 38.0554 29.2766 38.0832C29.1475 38.0363 29.0184 37.9894 28.9128 37.9307C28.5 37.6922 28.0872 37.4543 27.6745 37.2165C26.1988 36.3661 24.7247 35.5166 23.2577 34.6455C23.07 34.5282 22.8588 34.2466 22.8588 34.0354C22.8412 32.3547 22.8434 30.674 22.8456 28.9933C22.8463 28.433 22.847 27.8728 22.847 27.3126C22.847 27.2525 22.8567 27.1971 22.8698 27.1219ZM31.6701 38.1067L31.67 38.1067V35.9596C31.67 35.5548 31.6693 35.1501 31.6686 34.7453C31.6664 33.531 31.6642 32.3166 31.6818 31.1023C31.6818 30.9146 31.7874 30.633 31.9399 30.5391C33.9343 29.3542 35.9405 28.2044 37.9467 27.0547L37.947 27.0545C37.9588 27.0486 37.9763 27.0486 38.0027 27.0486C38.0291 27.0486 38.0643 27.0486 38.1113 27.0428C38.1152 27.0975 38.1204 27.1523 38.1256 27.207C38.136 27.3165 38.1465 27.426 38.1465 27.5355C38.1465 28.0665 38.1472 28.5974 38.1479 29.1284C38.1501 30.721 38.1523 32.3137 38.1347 33.9064C38.1347 34.141 38.0174 34.4696 37.8414 34.5752C36.3807 35.4463 34.9002 36.2977 33.4196 37.149C32.9261 37.4328 32.4326 37.7166 31.9399 38.0011C31.8812 38.0363 31.8108 38.0598 31.6701 38.1067Z" fill="url(#paint0_linear_1027_5089)"/>
<defs>
<linearGradient id="paint0_linear_1027_5089" x1="5.33899" y1="1.72147e-07" x2="69.5545" y2="14.7185" gradientUnits="userSpaceOnUse">
<stop stop-color="#36C1FF"/>
<stop offset="0.442482" stop-color="#77A3F8"/>
<stop offset="0.70862" stop-color="#BD81F1"/>
<stop offset="1" stop-color="#CF79EE"/>
</linearGradient>
</defs>
</svg>
