<svg width="61" height="60" viewBox="0 0 61 60" fill="none" xmlns="http://www.w3.org/2000/svg">
<path fill-rule="evenodd" clip-rule="evenodd" d="M37.5654 0.130307L37.5653 0.130303C37.3577 0.0883467 37.1499 0.046343 36.9431 0H34.1316C34.1105 0.00937183 34.0894 0.0192122 34.0683 0.0290527V0.0290553L34.0683 0.0290595C33.984 0.0684188 33.8996 0.107776 33.8153 0.117147C26.7747 0.995753 21.7725 7.59116 22.7566 14.6669C23.7172 21.5903 30.0783 26.5105 37.0251 25.7022C44.2063 24.8587 49.3842 18.2516 48.2947 11.1173C47.463 5.64651 44.2414 2.12037 38.9698 0.46859C38.5134 0.321894 38.04 0.226225 37.5654 0.130307ZM46.0806 12.9214C46.0806 18.7085 41.3479 23.3943 35.5256 23.3943C29.6917 23.3943 24.9824 18.685 24.9824 12.8394C24.9824 7.07571 29.7503 2.33123 35.5374 2.34295C41.3596 2.34295 46.0923 7.09914 46.0806 12.9214ZM57.8584 34.6235L57.8585 34.6235C58.8543 33.5031 59.8521 32.3804 60.4893 30.9855C60.4893 30.0132 60.4893 29.0409 60.4776 28.0451C60.4613 28.0208 60.4423 27.9965 60.4229 27.9717C60.3863 27.9248 60.3482 27.8762 60.3253 27.8225C58.8258 24.4956 54.9482 23.8278 52.3944 26.4636C51.0854 27.8148 49.768 29.1618 48.4497 30.5096L48.449 30.5103L48.4485 30.5108C47.5728 31.4062 46.6967 32.302 45.8224 33.1996C45.7425 33.2795 45.6571 33.354 45.5737 33.4267C45.5349 33.4606 45.4965 33.4941 45.4592 33.5276C44.1121 32.2039 43.1632 31.8173 41.2888 31.8173C39.9494 31.8173 38.61 31.8186 37.2706 31.8199C34.5919 31.8225 31.9131 31.8251 29.2343 31.8173C28.9415 31.8173 28.6486 31.7821 28.3791 31.6884C26.9734 31.1612 25.5208 30.7981 24.0095 30.7278C17.9647 30.4466 13.1031 32.5084 9.82299 37.7801C9.71756 37.9441 9.42469 38.1081 9.23725 38.0964C8.04235 38.0495 7.08174 38.5064 6.26171 39.3381C5.44753 40.164 4.6275 40.9841 3.80747 41.8041C2.98744 42.6241 2.1674 43.4442 1.35323 44.27C1.14236 44.4887 0.962733 44.7386 0.783106 44.9886C0.693294 45.1135 0.603482 45.2385 0.509766 45.3595V45.711C0.575211 45.8072 0.635596 45.906 0.695493 46.004L0.695499 46.004L0.695513 46.004C0.817878 46.2041 0.938211 46.401 1.0955 46.5661C5.34796 50.8654 9.61212 55.153 13.8763 59.4289C14.6377 60.1904 15.2118 60.1904 15.9849 59.4289C16.6432 58.7839 17.2981 58.1372 17.9529 57.4907L17.9539 57.4896L17.9542 57.4893L17.9543 57.4892C19.0469 56.4103 20.139 55.3319 21.2449 54.2627C22.2758 53.267 22.6389 52.0955 22.3812 50.7014C22.3578 50.5726 22.3578 50.3734 22.4398 50.2914C23.5292 49.1082 24.689 48.2062 26.4931 48.2413C30.1033 48.313 33.7135 48.2956 37.3237 48.2782C38.4345 48.2729 39.5454 48.2675 40.6562 48.2648C41.4177 48.2648 42.1791 48.2648 42.9289 48.1593C45.4475 47.8196 47.6265 46.7653 49.29 44.8089C51.8086 41.8451 54.3273 38.8578 56.7991 35.8471C57.1406 35.4311 57.4994 35.0275 57.8584 34.6235ZM20.8645 48.4285C20.8316 48.439 20.7885 48.4529 20.7294 48.4756C20.6229 48.3573 20.515 48.2335 20.4044 48.1068L20.4034 48.1056L20.4033 48.1055C20.186 47.8563 19.9584 47.5952 19.7102 47.3393C17.1681 44.7855 14.6143 42.2434 12.0488 39.7013C11.7559 39.4201 11.7325 39.221 11.9434 38.8695C13.9349 35.5777 16.887 33.7619 20.6474 33.1996C23.1427 32.8247 25.5793 33.059 27.934 34.0431C28.2503 34.1719 28.6252 34.2071 28.9649 34.2071C31.0443 34.2129 33.1236 34.2129 35.203 34.2129C37.2824 34.2129 39.3617 34.2129 41.4411 34.2188C41.816 34.2188 42.1908 34.2188 42.5423 34.3242C43.6552 34.6522 44.2995 35.7066 44.1472 36.8546C43.9832 38.0027 43.0929 38.8344 41.9097 38.8461C39.6253 38.8637 37.3409 38.8615 35.0566 38.8593C34.2951 38.8586 33.5336 38.8578 32.7722 38.8578C32.5262 38.8578 32.2684 38.8578 32.0224 38.9164C31.4601 39.0453 31.1438 39.4084 31.1087 39.9824C31.0735 40.5565 31.3898 41.0133 31.9404 41.1656C32.1747 41.2359 32.4442 41.2476 32.6902 41.2476H41.4762C44.5455 41.2476 46.5136 39.2796 46.5604 36.222C46.5721 35.9994 46.7244 35.7183 46.9002 35.5426C49.3248 33.0242 51.7612 30.5292 54.1976 28.0342L54.1984 28.0334C55.1591 27.0494 56.5414 26.9557 57.502 27.7991C58.486 28.6777 58.5798 30.0718 57.6777 31.1495C55.742 33.4684 53.7976 35.7872 51.8594 38.0986L51.8544 38.1046L50.9183 39.221C50.7851 39.3775 50.6516 39.534 50.5181 39.6906C49.6421 40.7178 48.7631 41.7485 47.9193 42.8057C46.209 44.9612 43.948 45.8984 41.2302 45.8984C39.8509 45.8984 38.4716 45.9022 37.0926 45.906H37.0924H37.0923C33.6459 45.9156 30.2012 45.9252 26.7625 45.875C24.5719 45.8398 22.7326 46.4724 21.2683 48.1008C21.1989 48.1789 21.123 48.2441 21.0455 48.3108L21.0455 48.3108C21.0183 48.3341 20.991 48.3576 20.9637 48.3819C20.9422 48.4034 20.9163 48.4118 20.8645 48.4285ZM16.0408 56.0514C15.7103 56.3758 15.3828 56.6973 15.0595 57.0157C11.1233 53.1733 7.26917 49.4128 3.34473 45.5938C3.84487 45.0994 4.32807 44.6192 4.80266 44.1474L4.8029 44.1472C5.29536 43.6577 5.77853 43.1775 6.26171 42.7003C6.85916 42.0911 7.45661 41.4819 8.07749 40.8845C8.66323 40.2987 9.2724 40.2987 9.86985 40.8845C13.1383 44.1295 16.395 47.3745 19.6399 50.6312C20.1905 51.17 20.2843 51.8143 19.8157 52.2946C18.5581 53.5799 17.2787 54.836 16.0408 56.0514ZM28.5204 39.8302C28.5321 40.5097 28.0284 41.0251 27.3723 41.0368C26.728 41.0485 26.1774 40.498 26.1774 39.8536C26.1774 39.221 26.6695 38.7173 27.3138 38.6939C27.9932 38.6704 28.5087 39.1508 28.5204 39.8302ZM37.1137 10.2478C37.2222 10.3099 37.3393 10.3768 37.4699 10.4494C37.5878 10.3518 37.7113 10.2641 37.8327 10.178C38.061 10.0159 38.2816 9.8593 38.4423 9.65275C38.7351 9.25445 38.6414 8.78586 38.3251 8.41099C38.1494 8.20012 37.9502 7.96583 37.7159 7.87211C36.685 7.48552 36.3219 6.79435 36.4625 5.70488C36.5327 5.13086 35.9236 4.6857 35.3261 4.6857C34.7287 4.6857 34.2249 5.11914 34.1664 5.70488C34.1312 6.02118 34.1312 6.33748 34.1547 6.64206C34.1781 7.02865 34.0727 7.25123 33.6861 7.43866C32.3389 8.11812 31.636 9.52389 31.8117 11.0351C31.964 12.3823 33.03 13.5772 34.4241 13.9403C34.635 13.995 34.8562 14.0184 35.0775 14.0419C35.1882 14.0536 35.2988 14.0653 35.4081 14.0809C35.947 14.1629 36.3805 14.4558 36.4156 14.983C36.439 15.3578 36.2633 15.8147 36.0173 16.1076C35.6893 16.4942 35.1621 16.4942 34.7287 16.2364C34.4189 16.0566 34.1433 15.8086 33.8726 15.565C33.826 15.523 33.7794 15.4812 33.7329 15.4398C33.2292 15.0064 32.62 14.9712 32.1397 15.3695C31.636 15.7913 31.5423 16.459 31.9757 16.9862L31.9792 16.9904C32.2947 17.376 32.6567 17.8186 33.0886 17.9936C34.0141 18.3802 34.2718 18.9894 34.1664 19.9266C34.0961 20.5943 34.635 21.0629 35.291 21.0746C35.9704 21.0863 36.4625 20.6178 36.4859 19.9149C36.4976 19.6454 36.5093 19.3643 36.4859 19.0948C36.439 18.7082 36.5796 18.5208 36.9311 18.3334C38.1845 17.6656 38.8523 16.5996 38.8288 15.1587C38.8054 13.7646 38.1494 12.722 36.9193 12.1128C36.4954 11.8959 35.9967 11.8201 35.5072 11.7456C35.4151 11.7316 35.3233 11.7177 35.2324 11.7028C34.6115 11.5974 34.1312 11.1054 34.1429 10.5196C34.1429 9.9339 34.6584 9.33645 35.2558 9.39502C35.5577 9.42952 35.8531 9.58461 36.1469 9.73883C36.2522 9.79412 36.3573 9.84929 36.4625 9.89876C36.6727 9.9958 36.8718 10.1096 37.1137 10.2478Z" fill="url(#paint0_linear_1027_5097)"/>
<defs>
<linearGradient id="paint0_linear_1027_5097" x1="5.3357" y1="1.72147e-07" x2="69.5586" y2="14.7221" gradientUnits="userSpaceOnUse">
<stop stop-color="#36C1FF"/>
<stop offset="0.442482" stop-color="#77A3F8"/>
<stop offset="0.70862" stop-color="#BD81F1"/>
<stop offset="1" stop-color="#CF79EE"/>
</linearGradient>
</defs>
</svg>
