<svg width="45" height="60" viewBox="0 0 45 60" fill="none" xmlns="http://www.w3.org/2000/svg">
<path fill-rule="evenodd" clip-rule="evenodd" d="M17.7219 0C18.0155 0.051821 18.3102 0.0986341 18.6044 0.145376C19.3249 0.259858 20.0428 0.373912 20.7367 0.560066C29.0423 2.7765 34.2736 8.07926 36.49 16.3611C37.1693 18.8993 37.4791 21.4851 37.4553 24.1186C37.4553 24.2339 37.4619 24.3491 37.4701 24.4939L37.4702 24.494L37.4703 24.4957C37.4731 24.545 37.4761 24.5976 37.4791 24.6548C38.1464 24.4165 38.6469 23.9994 38.8733 23.4155C39.1831 22.5933 39.3857 21.7234 39.5525 20.8655C39.6479 20.365 39.7551 19.9121 40.2913 19.7692C40.8752 19.6023 41.2685 19.9002 41.5664 20.3888C44.7004 25.5009 45.5703 30.7917 42.8057 36.3328C42.427 37.0823 41.9126 37.7638 41.3972 38.4466C41.134 38.7952 40.8707 39.1441 40.625 39.5026C40.4939 39.6932 40.3509 39.9554 40.3628 40.1699C40.8157 45.2105 39.493 49.7387 36.216 53.5876C32.1525 58.3542 26.9093 60.4633 20.689 59.9152C12.6336 59.2002 5.97238 52.9203 4.76883 44.9602C4.61491 43.9444 4.61507 42.9086 4.61523 41.8722V41.8722C4.61532 41.3039 4.61541 40.7354 4.59008 40.1699C4.57817 39.9315 4.44709 39.6456 4.28026 39.4668C2.4094 37.3457 1.20585 34.9148 0.729201 32.1383C0.0976363 28.4204 1.02711 25.0362 3.01713 21.9022C3.87511 20.5556 4.98332 19.4355 6.2107 18.3988C8.53438 16.4445 9.82134 13.9302 10.012 10.8915C10.0478 10.391 10.1431 9.9382 10.6555 9.71179C11.1679 9.48538 11.585 9.71179 11.9663 10.0335C13.7895 11.5707 14.7189 13.6203 15.2194 15.8964C15.3293 16.3906 15.3875 16.8952 15.4484 17.4238C15.48 17.698 15.5124 17.9787 15.5531 18.2677C15.6085 18.1984 15.6621 18.1327 15.714 18.0693L15.7141 18.0691C15.7959 17.9688 15.8734 17.874 15.9463 17.7791C17.4239 15.7057 17.8529 13.3463 17.7934 10.8558C17.7219 7.66219 16.9592 4.63544 15.7199 1.71595C15.3505 0.834141 15.422 0.560066 16.1966 0.0238326C16.6971 0 17.2095 0 17.7219 0ZM5.06674 37.167C7.92665 29.1115 13.4082 24.2378 21.9641 24.0352C31.0205 23.8088 36.8475 28.7183 39.8862 37.0955C42.758 33.7589 43.2347 28.5038 41.1017 23.7254C41.0979 23.7279 41.0941 23.7303 41.0904 23.7325C41.0842 23.7363 41.078 23.7399 41.0719 23.7434C41.0468 23.7577 41.0235 23.7711 41.0063 23.7969C40.9825 23.8385 40.9617 23.8832 40.9408 23.9278L40.9408 23.9279L40.9407 23.9281C40.9199 23.9727 40.8991 24.0174 40.8752 24.059C40.0173 25.7631 38.6231 26.7164 36.7403 26.9547C35.9776 27.05 35.4772 26.621 35.4652 25.8465V25.8462C35.4652 25.5245 35.4652 25.2148 35.4772 24.8932C35.5129 21.8068 35.1912 18.7563 34.2498 15.8129C32.0572 8.98489 27.672 4.3852 20.6056 2.56201C20.059 2.42536 19.507 2.32667 18.9423 2.2257C18.6698 2.17698 18.3943 2.12773 18.1151 2.07344C18.2084 2.38743 18.3008 2.6925 18.3914 2.9914L18.3916 2.99193L18.3916 2.99197C18.6481 3.83855 18.8897 4.63565 19.0922 5.44575C19.843 8.43675 20.0932 11.4516 19.5093 14.5021C18.9492 17.4336 17.2452 19.6857 15.1718 21.7115C14.8619 22.0094 14.4687 22.069 14.0755 21.8664C13.6107 21.6281 13.5035 21.211 13.4916 20.7225C13.4844 20.4729 13.4781 20.2228 13.4719 19.9725L13.4719 19.9721V19.9721C13.4471 18.9794 13.4223 17.9822 13.3367 16.9927C13.2056 15.5389 12.7051 14.1923 11.8471 12.9292C11.8237 12.9854 11.8021 13.0324 11.7831 13.0738C11.7537 13.1378 11.7305 13.1884 11.716 13.239C11.0011 16.1108 9.36852 18.3511 7.15209 20.2935C3.63678 23.3679 2.01616 27.2526 2.75497 31.9595C3.04096 33.8781 3.85127 35.6059 5.06674 37.167ZM22.4884 25.9656C13.6941 25.9537 6.54436 33.0916 6.53244 41.8858C6.52053 50.7158 13.6465 57.8894 22.4645 57.8894C31.2349 57.9013 38.4086 50.7396 38.4205 41.9573C38.4443 33.1273 31.3184 25.9775 22.4884 25.9656ZM22.4406 55.8993C14.7546 55.8993 8.49856 49.6432 8.48665 41.9453C8.47473 34.2235 14.7665 27.9436 22.5241 27.9555C30.222 27.9675 36.5257 34.295 36.4781 41.981C36.4423 49.7028 30.1862 55.8993 22.4406 55.8993ZM34.4523 41.9453C34.488 35.439 29.1376 30.0051 22.667 29.9694C15.9343 29.9337 10.5839 35.1768 10.5124 41.8738C10.4528 48.392 15.8152 53.8497 22.3215 53.8854C29.0304 53.9212 34.4165 48.6184 34.4523 41.9453ZM21.4381 48.4616C21.4295 48.514 21.421 48.5665 21.4162 48.6189C20.3199 48.2971 19.593 47.2843 19.4977 45.9973C19.45 45.2942 19.0448 44.8891 18.4252 44.9248C17.8413 44.9606 17.4957 45.3777 17.4957 46.0688C17.4957 48.0707 18.9138 49.9773 20.9276 50.6566C20.9558 50.6652 20.984 50.6732 21.012 50.6813C21.256 50.7511 21.4831 50.8162 21.5473 51.169C21.6307 51.6575 22.0239 51.9078 22.5006 51.8959C22.9772 51.884 23.299 51.6218 23.4658 51.1451C23.5254 50.9664 23.728 50.7638 23.9067 50.7042C26.135 49.9297 27.4816 48.1422 27.4816 45.9139C27.4816 43.6736 26.147 41.8623 23.9186 41.1235C23.5969 41.0163 23.4896 40.8733 23.4896 40.5396C23.5075 39.5472 23.5053 38.5481 23.503 37.5523C23.5023 37.2209 23.5015 36.8899 23.5015 36.5596V35.2011C24.6455 35.5467 25.3724 36.5477 25.4677 37.8346C25.5154 38.5496 25.9206 38.9548 26.5402 38.919C27.136 38.8833 27.4816 38.4543 27.4816 37.775C27.4816 35.7612 26.0516 33.8427 24.0497 33.1754C24.0215 33.1668 23.9933 33.1587 23.9653 33.1507C23.7214 33.0808 23.4942 33.0157 23.43 32.663C23.3466 32.1863 22.9653 31.9361 22.4767 31.948C21.9882 31.948 21.6903 32.222 21.5115 32.6868C21.4519 32.8655 21.2494 33.0681 21.0706 33.1277C18.8661 33.8903 17.5076 35.6778 17.4957 37.8585C17.4838 40.1583 18.7827 41.9338 21.0587 42.7084C21.3685 42.8156 21.4758 42.9586 21.4758 43.2923C21.4579 44.5257 21.4601 45.759 21.4624 46.9924C21.4631 47.4035 21.4639 47.8146 21.4639 48.2257C21.4639 48.3043 21.451 48.3829 21.4381 48.4616ZM19.4977 38.0372C19.4738 36.7741 20.2246 35.6301 21.4281 35.213V40.635C20.3318 40.3132 19.5215 39.205 19.4977 38.0372ZM25.4558 45.8781C25.4677 47.1174 24.7051 48.2495 23.5373 48.6308V43.197C24.6574 43.5664 25.4439 44.6746 25.4558 45.8781Z" fill="url(#paint0_linear_1027_5104)"/>
<defs>
<linearGradient id="paint0_linear_1027_5104" x1="4.06817" y1="1.72147e-07" x2="52.2252" y2="8.08616" gradientUnits="userSpaceOnUse">
<stop stop-color="#36C1FF"/>
<stop offset="0.442482" stop-color="#77A3F8"/>
<stop offset="0.70862" stop-color="#BD81F1"/>
<stop offset="1" stop-color="#CF79EE"/>
</linearGradient>
</defs>
</svg>
