<svg width="61" height="60" viewBox="0 0 61 60" fill="none" xmlns="http://www.w3.org/2000/svg">
<path fill-rule="evenodd" clip-rule="evenodd" d="M30.8584 0C31.8551 0.576625 32.8512 1.15325 33.8472 1.72976C37.5596 3.87873 41.2693 6.02615 44.9937 8.16626C45.6869 8.56576 45.9924 9.04751 45.9807 9.84651C45.9689 12.3074 45.9689 14.7684 45.9689 17.2293V17.2317C45.9689 19.6932 45.9689 22.1548 45.9572 24.6163C45.9572 25.0745 46.0982 25.3095 46.4859 25.5328C48.846 26.8842 51.1989 28.2426 53.5506 29.6004L53.5515 29.6009C55.473 30.7104 57.3938 31.8193 59.317 32.9235C59.975 33.2995 60.257 33.7813 60.2452 34.5215C60.2335 39.7385 60.2335 44.9556 60.2452 50.1726C60.2452 50.9598 59.975 51.4651 59.27 51.8763C54.7227 54.4731 50.1989 57.0816 45.6869 59.7136C45.0289 60.1013 44.4884 60.0896 43.8422 59.7136C41.7098 58.4682 39.5715 57.2346 37.4333 56.001L37.4324 56.0005L37.4307 55.9995C35.2928 54.7661 33.1549 53.5327 31.0229 52.2876C30.6352 52.0643 30.3532 52.0643 29.9654 52.2876C28.1249 53.3574 26.2801 54.4228 24.4346 55.4886L24.4336 55.4892L24.433 55.4896C22.0022 56.8934 19.5704 58.2978 17.1462 59.7136C16.4999 60.0896 15.9594 60.1013 15.3014 59.7136C10.7659 57.0698 6.21864 54.4496 1.65963 51.8411C1.02513 51.4651 0.754883 50.9716 0.754883 50.2313C0.766633 44.9791 0.766633 39.715 0.754883 34.4628C0.754883 33.7578 1.02513 33.2995 1.63613 32.947C3.78638 31.7133 5.93369 30.4766 8.08099 29.2399C10.2283 28.0032 12.3756 26.7665 14.5259 25.5328C14.9137 25.3095 15.0547 25.0745 15.0547 24.6163C15.0429 22.1547 15.0429 19.6931 15.0429 17.2315C15.0429 14.7698 15.0429 12.3082 15.0312 9.84651C15.0312 9.03576 15.3249 8.55401 16.0182 8.16626C19.4415 6.20761 22.8526 4.23044 26.2647 2.25265C27.5605 1.50153 28.8565 0.75032 30.1534 0H30.8584ZM17.4634 56.7526L17.507 56.7325C17.6368 56.6728 17.7311 56.6293 17.8159 56.5763C19.2568 55.7464 20.6978 54.9147 22.1394 54.0827C24.4125 52.7707 26.6874 51.4577 28.9667 50.1491C29.2722 49.9728 29.3309 49.7613 29.3309 49.4441C29.3231 46.608 29.3257 43.7666 29.3283 40.927V40.9257C29.3296 39.507 29.3309 38.0888 29.3309 36.6718V36.2135C29.208 36.2791 29.1194 36.3218 29.0452 36.3575L29.0447 36.3578C29.0126 36.3732 28.9832 36.3874 28.9549 36.4015C25.2419 38.54 21.5172 40.6903 17.8159 42.8523C17.6162 42.9698 17.4399 43.2988 17.4399 43.5338C17.4223 46.6975 17.4245 49.8612 17.4267 53.0249C17.4274 54.0794 17.4282 55.134 17.4282 56.1886C17.4282 56.2971 17.4371 56.4057 17.4467 56.5226C17.4526 56.5954 17.4589 56.6714 17.4634 56.7526ZM43.582 56.5271V56.527C43.5894 56.457 43.5954 56.4007 43.5954 56.3413C43.5954 52.0643 43.5954 47.7873 43.6072 43.5103C43.6072 43.1226 43.4309 42.9698 43.1372 42.7936C39.4864 40.6923 35.8474 38.5911 32.2084 36.4899L32.2023 36.4863L32.1979 36.4838C32.1215 36.4392 32.0381 36.4015 31.9535 36.3632C31.882 36.3309 31.8096 36.2982 31.7397 36.2605C31.7295 36.296 31.7194 36.3227 31.7112 36.3445L31.7112 36.3445C31.7003 36.3732 31.6927 36.3932 31.6927 36.4133C31.6927 37.5119 31.6919 38.6105 31.6912 39.709C31.689 43.005 31.6868 46.3009 31.7044 49.5968C31.7044 49.7848 31.9042 50.0433 32.0922 50.1491C33.0165 50.6974 33.9512 51.2352 34.886 51.7731C35.3534 52.0421 35.8208 52.311 36.2869 52.5813C38.6839 53.9678 41.0809 55.3543 43.5602 56.7878C43.566 56.6773 43.5747 56.5956 43.582 56.5271ZM43.5602 11.5503C43.3839 11.6208 43.2664 11.6678 43.1489 11.7265C42.3699 12.1766 41.5914 12.6267 40.8131 13.0767L40.8031 13.0825C37.8868 14.7686 34.9733 16.4531 32.0452 18.1303C31.7397 18.3065 31.6692 18.5063 31.6692 18.8235C31.675 20.9327 31.675 23.0419 31.675 25.1512C31.675 27.2602 31.675 29.3692 31.6809 31.4783C31.6809 31.6069 31.6881 31.7355 31.6968 31.8921L31.6969 31.8922C31.6993 31.936 31.7019 31.9819 31.7044 32.0305C31.7665 31.9995 31.8244 31.971 31.8791 31.944L31.8792 31.944C32.0317 31.8688 32.1591 31.806 32.2802 31.7368C35.8757 29.657 39.4712 27.5773 43.0784 25.5093C43.4779 25.286 43.5954 25.0275 43.5954 24.581C43.5837 20.445 43.5837 16.2973 43.5837 12.1613C43.5918 12.0403 43.5832 11.9137 43.5732 11.7664V11.7664C43.5687 11.6991 43.5639 11.6276 43.5602 11.5503ZM17.4282 11.4798V12.1378C17.4282 13.1773 17.4289 14.2169 17.4296 15.2566V15.2572V15.2575C17.4318 18.3777 17.434 21.4996 17.4164 24.628C17.4164 25.0863 17.5809 25.3213 17.9569 25.5328C21.5642 27.6008 25.1597 29.6805 28.7552 31.7603C28.8475 31.8131 28.9399 31.8585 29.0469 31.911C29.1304 31.952 29.2227 31.9974 29.3309 32.054V31.4078C29.3309 30.3683 29.3302 29.3288 29.3295 28.2891V28.2885V28.2882C29.3272 25.1679 29.325 22.046 29.3427 18.9175C29.3427 18.4828 29.2017 18.2595 28.8374 18.0598C25.9469 16.403 23.0564 14.7345 20.1659 13.066C19.8012 12.8541 19.4345 12.6422 19.0587 12.4251C18.5386 12.1245 18.0012 11.814 17.4282 11.4798ZM14.9842 56.7643L14.9937 56.7324C15.0216 56.64 15.0312 56.6082 15.0312 56.5763C15.0312 55.4777 15.0319 54.3791 15.0326 53.2804V53.28C15.0348 49.9843 15.037 46.6885 15.0194 43.3928C15.0194 43.2048 14.8197 42.9463 14.6316 42.8406C10.9539 40.7021 7.27614 38.5753 3.59839 36.4603C3.5119 36.4084 3.41268 36.3692 3.3101 36.3288L3.30974 36.3286C3.27307 36.3141 3.23598 36.2995 3.19889 36.284C3.17539 36.378 3.16364 36.425 3.16364 36.4603C3.16364 37.5527 3.1629 38.6458 3.16217 39.7392V39.7393C3.15996 43.0212 3.15776 46.3064 3.17539 49.5851C3.17539 49.7848 3.39864 50.0668 3.58664 50.1843C5.01625 51.0364 6.46111 51.8656 7.90894 52.6965C8.25798 52.8968 8.60719 53.0972 8.95639 53.2981C10.2365 54.0285 11.5117 54.7637 12.8007 55.5068L12.8023 55.5078L12.8082 55.5111C13.5281 55.9262 14.2524 56.3438 14.9842 56.7643ZM57.6441 36.3494L57.6438 36.3495C57.5414 36.3994 57.4598 36.4393 57.3782 36.4838C53.7122 38.5988 50.0462 40.7138 46.3802 42.8171C46.0629 42.9933 45.9689 43.2048 45.9689 43.5573C45.9807 47.7991 45.9807 52.0291 45.9807 56.2708C45.9807 56.3824 45.988 56.5013 45.9969 56.645L45.9969 56.6452L46.0042 56.7643C46.0639 56.7329 46.1187 56.7048 46.1694 56.6787L46.1696 56.6786L46.1697 56.6786C46.3085 56.6073 46.418 56.5511 46.5212 56.4823C47.1797 56.1018 47.8377 55.7212 48.4956 55.3408L48.5091 55.333C51.4623 53.6253 54.4104 51.9205 57.3665 50.2313C57.7425 50.0198 57.86 49.7848 57.86 49.3618C57.8482 45.2023 57.8482 41.0428 57.8482 36.8833V36.2488C57.7704 36.2877 57.7037 36.3203 57.6441 36.3494ZM48.5707 29.4594L48.5705 29.4593C47.4237 28.804 46.3344 28.1814 45.2522 27.5303C44.8997 27.3188 44.6412 27.3423 44.3004 27.542C40.6932 29.6335 37.0742 31.725 33.4669 33.8048C33.3123 33.8932 33.1681 33.9919 32.9659 34.1303L32.9657 34.1304L32.9264 34.1573C33.1936 34.3112 33.4591 34.4639 33.7233 34.6158C34.9116 35.299 36.0712 35.9658 37.2152 36.6483C37.5442 36.848 37.7909 36.8363 38.1199 36.6483C40.2624 35.3977 42.4048 34.1632 44.5538 32.9248L44.5553 32.924L45.9219 32.1363L45.9228 32.1358L45.923 32.1357C47.0976 31.4544 48.2723 30.7731 49.5527 30.0213C49.2201 29.8305 48.8931 29.6436 48.5707 29.4594ZM19.4319 9.88003L19.435 9.88183L19.4351 9.88185C20.6234 10.5651 21.7832 11.232 22.9272 11.9145C23.2797 12.126 23.5382 12.1025 23.8789 11.9028C27.4039 9.84651 30.9289 7.81376 34.4657 5.78101L34.4666 5.78046C34.7131 5.63964 34.9596 5.49878 35.2647 5.32276C35.1865 5.2734 35.117 5.22835 35.0526 5.18663L35.0525 5.18656C34.933 5.10912 34.8311 5.04308 34.7242 4.98201C34.3415 4.75969 33.9577 4.53964 33.5742 4.31974L33.5737 4.3195C32.7209 3.83052 31.8694 3.34232 31.0347 2.83175C30.6704 2.6085 30.4119 2.6085 30.0359 2.82C27.7983 4.12469 25.5561 5.42032 23.3151 6.71533L23.3138 6.71604C21.9425 7.50846 20.5716 8.30064 19.2024 9.09451C19.0467 9.17239 18.907 9.25833 18.7434 9.35902L18.6384 9.42351C18.9044 9.57673 19.1689 9.72878 19.4319 9.88003ZM4.38564 34.1103C4.56189 34.2395 4.69114 34.3335 4.82039 34.4158C5.17268 34.6194 5.52586 34.8221 5.87919 35.025L5.87938 35.0251C6.81053 35.5596 7.74276 36.0947 8.66264 36.6483C8.99164 36.848 9.23839 36.8245 9.56739 36.6365C13.2099 34.5215 16.8524 32.4183 20.5067 30.315C20.5949 30.2635 20.6786 30.2028 20.775 30.1329L20.775 30.1329L20.7752 30.1328C20.8327 30.0911 20.8947 30.0461 20.9649 29.9978C20.5124 29.7372 20.0659 29.4787 19.6233 29.2225L19.6232 29.2224C18.5489 28.6004 17.498 27.9919 16.4412 27.401C16.3002 27.3305 16.0299 27.401 15.8654 27.4833C15.3111 27.7849 14.7625 28.1035 14.2116 28.4233C13.9685 28.5645 13.7249 28.7059 13.4801 28.8463C10.4721 30.597 7.47589 32.336 4.38564 34.1103ZM27.2123 14.3791L27.2128 14.3794L27.2129 14.3795C28.1778 14.9346 29.118 15.4755 30.0477 16.027C30.4002 16.2385 30.6469 16.215 30.9994 16.0153C34.6409 13.9008 38.2825 11.7981 41.924 9.69546L41.9269 9.69376C42.0059 9.64771 42.0812 9.59797 42.1651 9.54249L42.1652 9.54242C42.2312 9.49883 42.3025 9.45169 42.3852 9.40001C41.9331 9.13973 41.487 8.88144 41.0449 8.62544L41.0438 8.62481L41.0437 8.62477C39.9694 8.0027 38.9184 7.39414 37.8614 6.80326C37.7322 6.73276 37.4854 6.79151 37.3444 6.86201C36.4044 7.37901 35.4762 7.91951 34.5479 8.46001C32.9034 9.41876 31.2589 10.37 29.6016 11.3286L29.6007 11.329C28.3335 12.0621 27.0587 12.7994 25.7707 13.5478C26.2583 13.8303 26.7383 14.1064 27.2123 14.3791ZM56.6732 34.1455C56.3134 33.9375 55.9597 33.7336 55.6107 33.5324C54.5009 32.8924 53.4393 32.2803 52.3844 31.6545C52.0554 31.4548 51.8204 31.4548 51.4914 31.6545C48.5152 33.3923 45.5311 35.1143 42.552 36.8335L42.5356 36.843C41.8742 37.2247 41.213 37.6062 40.5522 37.9878C40.458 38.0385 40.3684 38.0981 40.2694 38.1639C40.2078 38.2049 40.1426 38.2482 40.0704 38.2933C40.4706 38.5242 40.866 38.7535 41.2582 38.9809L41.2598 38.9818C42.364 39.6222 43.4433 40.2481 44.5354 40.8548C44.6882 40.9371 44.9819 40.8901 45.1582 40.7961C46.2508 40.1969 47.3317 39.5625 48.4125 38.928L48.4129 38.9278C51.1272 37.3533 53.8414 35.7788 56.6732 34.1455ZM27.0733 33.5343L27.0699 33.5323C25.9601 32.8924 24.8985 32.2803 23.8437 31.6545C23.5147 31.4665 23.2914 31.4548 22.9507 31.6428C19.3082 33.7695 15.6657 35.8728 12.0114 37.9761L12.0112 37.9761C11.8585 38.0701 11.7058 38.1641 11.5179 38.2815L12.2121 38.6831C13.4663 39.4089 14.6793 40.1109 15.9007 40.7961C16.0769 40.8901 16.3942 40.8901 16.5704 40.7961C17.0974 40.5204 17.6076 40.2224 18.1164 39.9252L18.1165 39.9251C18.3451 39.7916 18.5734 39.6582 18.8029 39.5271L18.8084 39.5239L18.8089 39.5236C21.8854 37.7505 24.962 35.9774 28.1324 34.1455C27.7738 33.9382 27.4212 33.7349 27.0733 33.5343ZM53.9711 49.785C53.9374 49.8279 53.8989 49.8892 53.8543 49.9601C53.728 50.1611 53.5532 50.4394 53.3014 50.5957C52.0172 51.3928 50.7122 52.1272 49.3962 52.8679L49.1536 53.0045C48.5191 53.357 47.8493 53.169 47.5203 52.605C47.1913 52.0527 47.3441 51.3477 47.9551 50.9717C49.3534 50.1257 50.7751 49.3032 52.2086 48.516C53.0546 48.0695 53.9594 48.61 53.9711 49.785ZM54.6291 47.9984C54.6409 48.6799 55.0991 49.1499 55.7571 49.1499C56.4269 49.1499 56.8851 48.6916 56.8851 48.0101C56.8969 47.3286 56.3916 46.7999 55.7336 46.8116C55.0991 46.8234 54.6291 47.3286 54.6291 47.9984Z" fill="url(#paint0_linear_1027_5077)"/>
<defs>
<linearGradient id="paint0_linear_1027_5077" x1="5.54149" y1="1.72147e-07" x2="69.2926" y2="14.4948" gradientUnits="userSpaceOnUse">
<stop stop-color="#36C1FF"/>
<stop offset="0.442482" stop-color="#77A3F8"/>
<stop offset="0.70862" stop-color="#BD81F1"/>
<stop offset="1" stop-color="#CF79EE"/>
</linearGradient>
</defs>
</svg>
