<svg width="30" height="30" viewBox="0 0 30 30" fill="none" xmlns="http://www.w3.org/2000/svg">
    <path d="M25.7153 3.76454C25.2999 3.72048 24.8483 3.78536 24.3945 3.96474C23.832 4.18599 15.018 7.89368 6.80176 11.3524L4.08691 12.495C3.03566 12.9213 2.50488 13.6145 2.50488 14.5482C2.50488 15.202 2.78156 16.0887 4.10156 16.6112L8.68408 18.4472C9.08033 19.6359 10.0007 22.396 10.2319 23.1298C10.3694 23.5648 10.7167 24.6606 11.5942 24.9169C11.7742 24.9781 11.9621 25.0097 12.1533 25.0097C12.7071 25.0097 13.1058 24.7519 13.3008 24.6019L16.2134 22.1386L19.751 25.41C19.8872 25.5488 20.6084 26.2499 21.5771 26.2499C22.7859 26.2499 23.7028 25.2437 23.894 24.2699C23.9978 23.7362 27.4097 6.60872 27.4097 6.61122C27.7159 5.23747 27.1653 4.52483 26.8115 4.22108C26.5084 3.96171 26.1308 3.8086 25.7153 3.76454ZM24.8877 6.46474C24.4164 8.82724 21.8475 21.7227 21.4575 23.5814L16.2866 18.7987L12.7783 21.7699L13.75 17.9686C13.75 17.9686 20.4532 11.1835 20.8569 10.7885C21.1819 10.4722 21.25 10.3614 21.25 10.2514C21.25 10.1051 21.1747 9.99989 21.001 9.99989C20.8447 9.99989 20.6325 10.1496 20.52 10.2196C19.0908 11.1106 13.0051 14.5777 10.0098 16.2816L5.66406 14.5458L7.77344 13.6596C13.1472 11.3971 22.7177 7.36724 24.8877 6.46474Z" fill="white" />
</svg>