<svg width="22" height="22" viewBox="0 0 22 22" fill="none" xmlns="http://www.w3.org/2000/svg">
<g opacity="0.4">
<path fill-rule="evenodd" clip-rule="evenodd" d="M10.9923 3.8235L11 3.81952L11.008 3.82367L15.0903 6.27306L16.5 7.12238V17.2333C16.5 17.7769 16.4985 18.0744 16.4811 18.2881L16.479 18.3123L16.4548 18.3144C16.241 18.3319 15.9436 18.3333 15.4 18.3333H6.59995C6.05632 18.3333 5.75885 18.3319 5.54511 18.3144L5.52094 18.3123L5.51884 18.2881C5.50138 18.0744 5.49995 17.7769 5.49995 17.2333V7.1224L6.90444 6.2762L10.9923 3.8235ZM5.95983 4.70495L1.36169 7.46384C0.927573 7.72431 0.786805 8.28738 1.04727 8.72149C1.30774 9.15561 1.87082 9.29638 2.30493 9.03591L3.66662 8.2189V17.2333C3.66662 18.26 3.66662 18.7734 3.86644 19.1656C4.04221 19.5106 4.32267 19.791 4.66763 19.9668C5.05981 20.1666 5.57319 20.1666 6.59995 20.1666H15.4C16.4267 20.1666 16.9401 20.1666 17.3323 19.9668C17.6772 19.791 17.9577 19.5106 18.1335 19.1656C18.3333 18.7734 18.3333 18.26 18.3333 17.2333V8.21886L19.695 9.03591C20.1291 9.29638 20.6922 9.15561 20.9527 8.72149C21.2131 8.28738 21.0724 7.72431 20.6383 7.46384L16.0348 4.70178L12.5137 2.58035C12.2577 2.42611 12.0613 2.30775 11.8948 2.21875C11.8559 2.19702 11.8165 2.1768 11.7765 2.15811C11.638 2.09049 11.5179 2.04549 11.3945 2.0183C11.1346 1.96102 10.8653 1.96102 10.6054 2.0183C10.4817 2.04556 10.3613 2.09073 10.2223 2.15864C10.1831 2.17702 10.1443 2.19688 10.1061 2.2182C9.93943 2.30726 9.7427 2.42579 9.48617 2.58035L5.95983 4.70495Z" fill="white"/>
<path fill-rule="evenodd" clip-rule="evenodd" d="M11.9167 18.3332V14.6665C11.9167 14.1602 11.5063 13.7498 11 13.7498C10.4937 13.7498 10.0833 14.1602 10.0833 14.6665V18.3332H11.9167ZM11 11.9165C9.48122 11.9165 8.25 13.1477 8.25 14.6665V20.1665H13.75V14.6665C13.75 13.1477 12.5188 11.9165 11 11.9165Z" fill="white"/>
</g>
</svg>
