<svg width="22" height="23" viewBox="0 0 22 23" fill="none" xmlns="http://www.w3.org/2000/svg">
    <path fill-rule="evenodd" clip-rule="evenodd" d="M10.9918 4.38038L10.9995 4.37641L11.0075 4.38056L15.0898 6.82995L16.4995 7.67926V17.7902C16.4995 18.3338 16.498 18.6313 16.4806 18.845L16.4785 18.8692L16.4543 18.8713C16.2406 18.8887 15.9431 18.8902 15.3995 18.8902H6.59946C6.05583 18.8902 5.75836 18.8887 5.54462 18.8713L5.52045 18.8692L5.51835 18.845C5.50089 18.6313 5.49946 18.3338 5.49946 17.7902V7.67928L6.90395 6.83309L10.9918 4.38038ZM5.95935 5.26183L1.3612 8.02072C0.927084 8.28119 0.786316 8.84426 1.04679 9.27838C1.30725 9.71249 1.87033 9.85326 2.30444 9.59279L3.66613 8.77578V17.7902C3.66613 18.8169 3.66613 19.3303 3.86595 19.7225C4.04172 20.0674 4.32218 20.3479 4.66715 20.5237C5.05932 20.7235 5.5727 20.7235 6.59946 20.7235H15.3995C16.4262 20.7235 16.9396 20.7235 17.3318 20.5237C17.6767 20.3479 17.9572 20.0674 18.133 19.7225C18.3328 19.3303 18.3328 18.8169 18.3328 17.7902V8.77575L19.6945 9.59279C20.1286 9.85326 20.6917 9.71249 20.9522 9.27838C21.2127 8.84426 21.0719 8.28119 20.6378 8.02072L16.0343 5.25866L12.5133 3.13724C12.2573 2.983 12.0608 2.86464 11.8943 2.77564C11.8555 2.7539 11.816 2.73369 11.776 2.71499C11.6375 2.64738 11.5174 2.60237 11.394 2.57518C11.1341 2.51791 10.8648 2.51791 10.6049 2.57518C10.4812 2.60245 10.3608 2.64761 10.2218 2.71552C10.1826 2.73391 10.1438 2.75376 10.1057 2.77508C9.93894 2.86415 9.74221 2.98268 9.48568 3.13723L5.95935 5.26183Z" fill="white" />
    <path fill-rule="evenodd" clip-rule="evenodd" d="M11.9167 18.8903V15.2236C11.9167 14.7174 11.5063 14.307 11 14.307C10.4937 14.307 10.0833 14.7174 10.0833 15.2236V18.8903H11.9167ZM11 12.4736C9.48122 12.4736 8.25 13.7049 8.25 15.2236V20.7236H13.75V15.2236C13.75 13.7049 12.5188 12.4736 11 12.4736Z" fill="white" />
</svg>