<svg width="30" height="30" viewBox="0 0 30 30" fill="none" xmlns="http://www.w3.org/2000/svg">
    <path fill-rule="evenodd" clip-rule="evenodd" d="M3.97575 17.4998C1.9086 17.5056 0.574209 19.8605 1.8477 21.6446C3.67148 24.1995 6.97867 26.25 12.4999 26.25C21.0563 26.25 27.9246 19.2771 26.9631 11.0389L28.3717 8.22163C29.3486 6.26785 27.6511 4.04527 25.5091 4.47367L23.6481 4.84586C23.1547 4.58554 22.6441 4.38909 22.2077 4.24676C21.3572 3.9694 20.3278 3.75 19.3749 3.75C17.6633 3.75 16.1861 4.18914 15.0121 5.06991C13.8514 5.9408 13.1977 7.08531 12.8389 8.13631C12.6736 8.62076 12.5634 9.10668 12.4928 9.57304C11.8287 9.36404 11.1516 9.08283 10.4886 8.73944C8.98463 7.9604 7.76844 6.97277 7.08238 6.10689C5.93134 4.65412 3.49204 4.76184 2.63607 6.65026C1.42964 9.31184 1.76058 12.4668 2.84501 15.0161C3.20848 15.8705 3.68129 16.7151 4.25893 17.4979C4.16004 17.499 4.06544 17.4995 3.97575 17.4998ZM12.4998 23.75C7.67064 23.75 5.17356 22.0009 3.88237 20.1921C3.82435 20.1109 3.88285 20 3.98269 19.9998C5.29624 19.996 7.99249 19.9339 9.77074 18.8931C9.86271 18.8392 9.84247 18.7036 9.74147 18.6697C5.59626 17.276 3.23997 11.3732 4.91294 7.68237C4.9513 7.59775 5.06506 7.58659 5.12277 7.65943C7.03385 10.0715 11.2124 12.434 14.8478 12.4986C14.9267 12.5 14.9863 12.4284 14.9743 12.3504C14.8278 11.4007 14.2684 6.25 19.3748 6.25C20.5942 6.25 22.4084 6.84479 23.0767 7.45413C23.1076 7.48229 23.1494 7.49507 23.1904 7.48688L25.9992 6.92513C26.1012 6.90473 26.1821 7.01056 26.1356 7.1036L24.3934 10.5877C24.3813 10.6119 24.3776 10.6397 24.3822 10.6663C25.6023 17.525 19.9848 23.75 12.4998 23.75Z" fill="white" />
</svg>