<svg width="22" height="23" viewBox="0 0 22 23" fill="none" xmlns="http://www.w3.org/2000/svg">
    <path d="M17.4163 6.91667H16.4997V6C16.4997 5.27065 16.2099 4.57118 15.6942 4.05546C15.1785 3.53973 14.479 3.25 13.7497 3.25H4.58301C3.85366 3.25 3.15419 3.53973 2.63846 4.05546C2.12274 4.57118 1.83301 5.27065 1.83301 6V17C1.83301 17.7293 2.12274 18.4288 2.63846 18.9445C3.15419 19.4603 3.85366 19.75 4.58301 19.75H17.4163C18.1457 19.75 18.8452 19.4603 19.3609 18.9445C19.8766 18.4288 20.1663 17.7293 20.1663 17V9.66667C20.1663 8.93732 19.8766 8.23785 19.3609 7.72212C18.8452 7.2064 18.1457 6.91667 17.4163 6.91667ZM4.58301 5.08333H13.7497C13.9928 5.08333 14.2259 5.17991 14.3979 5.35182C14.5698 5.52373 14.6663 5.75688 14.6663 6V6.91667H4.58301C4.33989 6.91667 4.10673 6.82009 3.93483 6.64818C3.76292 6.47627 3.66634 6.24312 3.66634 6C3.66634 5.75688 3.76292 5.52373 3.93483 5.35182C4.10673 5.17991 4.33989 5.08333 4.58301 5.08333ZM18.333 14.25H17.4163C17.1732 14.25 16.9401 14.1534 16.7682 13.9815C16.5963 13.8096 16.4997 13.5764 16.4997 13.3333C16.4997 13.0902 16.5963 12.8571 16.7682 12.6852C16.9401 12.5132 17.1732 12.4167 17.4163 12.4167H18.333V14.25ZM18.333 10.5833H17.4163C16.687 10.5833 15.9875 10.8731 15.4718 11.3888C14.9561 11.9045 14.6663 12.604 14.6663 13.3333C14.6663 14.0627 14.9561 14.7622 15.4718 15.2779C15.9875 15.7936 16.687 16.0833 17.4163 16.0833H18.333V17C18.333 17.2431 18.2364 17.4763 18.0645 17.6482C17.8926 17.8201 17.6595 17.9167 17.4163 17.9167H4.58301C4.33989 17.9167 4.10673 17.8201 3.93483 17.6482C3.76292 17.4763 3.66634 17.2431 3.66634 17V8.59417C3.96084 8.69777 4.27082 8.75046 4.58301 8.75H17.4163C17.6595 8.75 17.8926 8.84658 18.0645 9.01849C18.2364 9.19039 18.333 9.42355 18.333 9.66667V10.5833Z" fill="white" />
</svg>