<svg width="23" height="22" viewBox="0 0 23 22" fill="none" xmlns="http://www.w3.org/2000/svg">
    <path d="M17.929 6.41667H17.0124V5.5C17.0124 4.77065 16.7226 4.07118 16.2069 3.55546C15.6912 3.03973 14.9917 2.75 14.2624 2.75H5.0957C4.36636 2.75 3.66688 3.03973 3.15116 3.55546C2.63543 4.07118 2.3457 4.77065 2.3457 5.5V16.5C2.3457 17.2293 2.63543 17.9288 3.15116 18.4445C3.66688 18.9603 4.36636 19.25 5.0957 19.25H17.929C18.6584 19.25 19.3579 18.9603 19.8736 18.4445C20.3893 17.9288 20.679 17.2293 20.679 16.5V9.16667C20.679 8.43732 20.3893 7.73785 19.8736 7.22212C19.3579 6.7064 18.6584 6.41667 17.929 6.41667ZM5.0957 4.58333H14.2624C14.5055 4.58333 14.7386 4.67991 14.9106 4.85182C15.0825 5.02373 15.179 5.25688 15.179 5.5V6.41667H5.0957C4.85259 6.41667 4.61943 6.32009 4.44752 6.14818C4.27561 5.97627 4.17904 5.74312 4.17904 5.5C4.17904 5.25688 4.27561 5.02373 4.44752 4.85182C4.61943 4.67991 4.85259 4.58333 5.0957 4.58333ZM18.8457 13.75H17.929C17.6859 13.75 17.4528 13.6534 17.2809 13.4815C17.1089 13.3096 17.0124 13.0764 17.0124 12.8333C17.0124 12.5902 17.1089 12.3571 17.2809 12.1852C17.4528 12.0132 17.6859 11.9167 17.929 11.9167H18.8457V13.75ZM18.8457 10.0833H17.929C17.1997 10.0833 16.5002 10.3731 15.9845 10.8888C15.4688 11.4045 15.179 12.104 15.179 12.8333C15.179 13.5627 15.4688 14.2622 15.9845 14.7779C16.5002 15.2936 17.1997 15.5833 17.929 15.5833H18.8457V16.5C18.8457 16.7431 18.7491 16.9763 18.5772 17.1482C18.4053 17.3201 18.1722 17.4167 17.929 17.4167H5.0957C4.85259 17.4167 4.61943 17.3201 4.44752 17.1482C4.27561 16.9763 4.17904 16.7431 4.17904 16.5V8.09417C4.47353 8.19777 4.78352 8.25046 5.0957 8.25H17.929C18.1722 8.25 18.4053 8.34658 18.5772 8.51849C18.7491 8.69039 18.8457 8.92355 18.8457 9.16667V10.0833Z" fill="#D47AF5" />
</svg>